<svg version="1.1" viewBox="0.0 0.0 1285.0393700787401 755.9055118110236" fill="none" stroke="none" stroke-linecap="square" stroke-miterlimit="10" xmlns:xlink="http://www.w3.org/1999/xlink" xmlns="http://www.w3.org/2000/svg"><clipPath id="p.0"><path d="m0 0l1285.0394 0l0 755.9055l-1285.0394 0l0 -755.9055z" clip-rule="nonzero"/></clipPath><g clip-path="url(#p.0)"><defs><linearGradient id="p.1" gradientUnits="userSpaceOnUse" gradientTransform="matrix(27.493820462889765 0.0 0.0 27.493820462889765 0.0 0.0)" spreadMethod="pad" x1="6.124858966178105E-10" y1="-1.6919546142100223E-4" x2="-9.952674268177798E-5" y2="27.493651267248197"><stop offset="0.0" stop-color="#00d2e9"/><stop offset="1.0" stop-color="#045962"/></linearGradient></defs><path fill="url(#p.1)" d="m0 0l1285.0394 0l0 755.9055l-1285.0394 0z" fill-rule="evenodd"/><path fill="#00ffff" d="m11.214582 412.8896l1262.6141 0l0 93.85828l-1262.6141 0z" fill-rule="evenodd"/><path fill="#ff6700" d="m50.27647 458.40836l6.53125 2.078125q-1.5 5.46875 -5.0 8.125q-3.5 2.640625 -8.875 2.640625q-6.640625 0 -10.937498 -4.53125q-4.28125 -4.546875 -4.28125 -12.4375q0 -8.328125 4.312498 -12.9375q4.3125 -4.625 11.328125 -4.625q6.125 0 9.953125 3.625q2.28125 2.140625 3.40625 6.15625l-6.671875 1.59375q-0.59375 -2.609375 -2.46875 -4.109375q-1.875 -1.5 -4.5625 -1.5q-3.71875 0 -6.03125 2.671875q-2.3125 2.65625 -2.3125 8.625q0 6.328125 2.28125 9.03125q2.28125 2.6875 5.921875 2.6875q2.6875 0 4.625 -1.703125q1.9375 -1.71875 2.78125 -5.390625zm10.959274 -4.21875q0 -5.09375 1.515625 -8.5625q1.140625 -2.546875 3.1093788 -4.578125q1.984375 -2.03125 4.328125 -3.0q3.125 -1.328125 7.1875 -1.328125q7.390625 0 11.8125 4.578125q4.4375 4.578125 4.4375 12.734375q0 8.09375 -4.40625 12.65625q-4.390625 4.5625 -11.75 4.5625q-7.4375 0 -11.84375 -4.53125q-4.390629 -4.546875 -4.390629 -12.53125zm6.937504 -0.21875q0 5.671875 2.625 8.609375q2.625 2.921875 6.65625 2.921875q4.03125 0 6.609375 -2.90625q2.59375 -2.90625 2.59375 -8.71875q0 -5.734375 -2.515625 -8.5625q-2.515625 -2.828125 -6.6875 -2.828125q-4.171875 0 -6.734375 2.859375q-2.546875 2.859375 -2.546875 8.625zm39.24385 16.71875l-11.9375 -33.390625l7.3125 0l8.4375 24.703125l8.1875 -24.703125l7.15625 0l-11.96875 33.390625l-7.1875 0zm22.38498 0l0 -33.390625l6.75 0l0 33.390625l-6.75 0zm13.150101 -33.390625l12.328125 0q4.15625 0 6.34375 0.625q2.9375 0.875 5.03125 3.09375q2.109375 2.203125 3.203125 5.40625q1.09375 3.1875 1.09375 7.890625q0 4.125 -1.03125 7.109375q-1.25 3.640625 -3.578125 5.890625q-1.75 1.71875 -4.734375 2.671875q-2.234375 0.703125 -5.96875 0.703125l-12.6875 0l0 -33.390625zm6.734375 5.640625l0 22.125l5.046875 0q2.8125 0 4.078125 -0.328125q1.640625 -0.40625 2.71875 -1.375q1.078125 -0.984375 1.765625 -3.21875q0.6875 -2.25 0.6875 -6.125q0 -3.875 -0.6875 -5.9375q-0.6875 -2.078125 -1.921875 -3.234375q-1.21875 -1.171875 -3.109375 -1.578125q-1.421875 -0.328125 -5.546875 -0.328125l-3.03125 0zm26.209274 18.84375l0 -6.40625l12.578125 0l0 6.40625l-12.578125 0zm31.27127 8.90625l-6.40625 0l0 -24.125q-3.5 3.28125 -8.265625 4.859375l0 -5.8125q2.515625 -0.828125 5.453125 -3.109375q2.9375 -2.296875 4.03125 -5.34375l5.1875 0l0 33.53125zm9.713608 -7.71875l6.1875 -0.6875q0.234375 1.890625 1.1875 2.8125q0.953125 0.90625 2.53125 0.90625q1.984375 0 3.375 -1.828125q1.390625 -1.828125 1.765625 -7.5625q-2.40625 2.796875 -6.03125 2.796875q-3.9375 0 -6.796875 -3.03125q-2.859375 -3.046875 -2.859375 -7.921875q0 -5.078125 3.015625 -8.1875q3.015625 -3.109375 7.6875 -3.109375q5.078125 0 8.328125 3.9375q3.265625 3.921875 3.265625 12.921875q0 9.15625 -3.390625 13.21875q-3.390625 4.046875 -8.84375 4.046875q-3.921875 0 -6.34375 -2.078125q-2.40625 -2.09375 -3.078125 -6.234375zm14.484375 -13.984375q0 -3.109375 -1.421875 -4.8125q-1.421875 -1.703125 -3.296875 -1.703125q-1.78125 0 -2.953125 1.40625q-1.171875 1.390625 -1.171875 4.578125q0 3.234375 1.265625 4.75q1.28125 1.515625 3.203125 1.515625q1.84375 0 3.109375 -1.453125q1.265625 -1.46875 1.265625 -4.28125zm25.691833 21.703125l0 -33.390625l10.828125 0q6.140625 0 8.015625 0.5q2.875 0.75 4.8125 3.265625q1.9375 2.515625 1.9375 6.5q0 3.078125 -1.125 5.171875q-1.109375 2.09375 -2.828125 3.296875q-1.71875 1.1875 -3.5 1.578125q-2.421875 0.484375 -7.0 0.484375l-4.390625 0l0 12.59375l-6.75 0zm6.75 -27.75l0 9.484375l3.6875 0q3.984375 0 5.328125 -0.515625q1.34375 -0.53125 2.109375 -1.640625q0.765625 -1.125 0.765625 -2.609375q0 -1.828125 -1.078125 -3.0q-1.0625 -1.1875 -2.703125 -1.484375q-1.203125 -0.234375 -4.859375 -0.234375l-3.25 0zm29.119324 10.9375l-5.8125 -1.046875q0.96875 -3.515625 3.359375 -5.1875q2.40625 -1.6875 7.109375 -1.6875q4.296875 0 6.390625 1.015625q2.09375 1.0 2.9375 2.5625q0.859375 1.5625 0.859375 5.734375l-0.0625 7.46875q0 3.1875 0.296875 4.703125q0.3125 1.515625 1.15625 3.25l-6.328125 0q-0.25 -0.640625 -0.625 -1.890625q-0.15625 -0.5625 -0.21875 -0.75q-1.640625 1.59375 -3.515625 2.390625q-1.859375 0.796875 -3.984375 0.796875q-3.734375 0 -5.890625 -2.03125q-2.15625 -2.03125 -2.15625 -5.125q0 -2.046875 0.984375 -3.65625q0.984375 -1.609375 2.75 -2.453125q1.765625 -0.859375 5.09375 -1.5q4.484375 -0.84375 6.21875 -1.5625l0 -0.640625q0 -1.84375 -0.921875 -2.625q-0.90625 -0.796875 -3.4375 -0.796875q-1.703125 0 -2.671875 0.671875q-0.953125 0.671875 -1.53125 2.359375zm8.5625 5.1875q-1.234375 0.421875 -3.90625 1.0q-2.65625 0.5625 -3.484375 1.109375q-1.25 0.875 -1.25 2.25q0 1.34375 1.0 2.328125q1.0 0.96875 2.5625 0.96875q1.71875 0 3.296875 -1.140625q1.15625 -0.859375 1.53125 -2.109375q0.25 -0.828125 0.25 -3.125l0 -1.28125zm34.604248 11.625l-6.40625 0l0 -12.34375q0 -3.921875 -0.40625 -5.0625q-0.40625 -1.15625 -1.34375 -1.796875q-0.921875 -0.640625 -2.21875 -0.640625q-1.65625 0 -2.984375 0.921875q-1.3125 0.90625 -1.8125 2.40625q-0.484375 1.5 -0.484375 5.5625l0 10.953125l-6.40625 0l0 -24.1875l5.953125 0l0 3.546875q3.171875 -4.09375 7.96875 -4.09375q2.125 0 3.875 0.765625q1.75 0.75 2.65625 1.9375q0.90625 1.1875 1.25 2.6875q0.359375 1.5 0.359375 4.3125l0 15.03125zm28.671387 0l-5.9375 0l0 -3.546875q-1.484375 2.0625 -3.5 3.078125q-2.015625 1.015625 -4.0625 1.015625q-4.171875 0 -7.15625 -3.359375q-2.96875 -3.359375 -2.96875 -9.375q0 -6.15625 2.890625 -9.34375q2.90625 -3.203125 7.328125 -3.203125q4.046875 0 7.015625 3.359375l0 -12.015625l6.390625 0l0 33.390625zm-17.078125 -12.625q0 3.875 1.0625 5.609375q1.5625 2.5 4.328125 2.5q2.21875 0 3.765625 -1.875q1.546875 -1.875 1.546875 -5.609375q0 -4.171875 -1.5 -6.0q-1.5 -1.84375 -3.84375 -1.84375q-2.28125 0 -3.828125 1.8125q-1.53125 1.8125 -1.53125 5.40625zm37.40576 4.921875l6.375 1.078125q-1.21875 3.5 -3.875 5.34375q-2.65625 1.828125 -6.640625 1.828125q-6.3125 0 -9.34375 -4.125q-2.390625 -3.296875 -2.390625 -8.34375q0 -6.0 3.140625 -9.40625q3.140625 -3.40625 7.953125 -3.40625q5.390625 0 8.515625 3.5625q3.125 3.5625 2.984375 10.921875l-16.03125 0q0.0625 2.84375 1.546875 4.4375q1.484375 1.578125 3.6875 1.578125q1.5 0 2.515625 -0.8125q1.03125 -0.828125 1.5625 -2.65625zm0.359375 -6.46875q-0.0625 -2.78125 -1.4375 -4.21875q-1.359375 -1.453125 -3.3125 -1.453125q-2.109375 0 -3.46875 1.53125q-1.359375 1.515625 -1.34375 4.140625l9.5625 0zm11.104248 -10.015625l5.890625 0l0 3.296875q3.171875 -3.84375 7.546875 -3.84375q2.328125 0 4.03125 0.953125q1.703125 0.953125 2.796875 2.890625q1.59375 -1.9375 3.4375 -2.890625q1.859375 -0.953125 3.953125 -0.953125q2.65625 0 4.5 1.078125q1.859375 1.078125 2.765625 3.171875q0.65625 1.546875 0.65625 5.015625l0 15.46875l-6.40625 0l0 -13.828125q0 -3.59375 -0.65625 -4.640625q-0.890625 -1.375 -2.734375 -1.375q-1.34375 0 -2.53125 0.828125q-1.171875 0.8125 -1.703125 2.40625q-0.53125 1.578125 -0.53125 4.984375l0 11.625l-6.390625 0l0 -13.265625q0 -3.53125 -0.34375 -4.546875q-0.34375 -1.03125 -1.0625 -1.53125q-0.71875 -0.5 -1.953125 -0.5q-1.46875 0 -2.65625 0.796875q-1.1875 0.796875 -1.703125 2.3125q-0.515625 1.5 -0.515625 4.984375l0 11.75l-6.390625 0l0 -24.1875zm41.953613 -3.28125l0 -5.921875l6.40625 0l0 5.921875l-6.40625 0zm0 27.46875l0 -24.1875l6.40625 0l0 24.1875l-6.40625 0zm34.056335 -17.046875l-6.296875 1.140625q-0.328125 -1.890625 -1.453125 -2.84375q-1.125 -0.953125 -2.921875 -0.953125q-2.390625 0 -3.828125 1.65625q-1.421875 1.640625 -1.421875 5.515625q0 4.3125 1.4375 6.09375q1.453125 1.765625 3.890625 1.765625q1.828125 0 2.984375 -1.03125q1.171875 -1.046875 1.640625 -3.5625l6.296875 1.0625q-0.984375 4.328125 -3.765625 6.546875q-2.78125 2.203125 -7.4375 2.203125q-5.3125 0 -8.46875 -3.34375q-3.15625 -3.359375 -3.15625 -9.28125q0 -5.984375 3.15625 -9.3125q3.171875 -3.34375 8.578125 -3.34375q4.421875 0 7.03125 1.90625q2.609375 1.890625 3.734375 5.78125zm17.644958 -7.140625l5.96875 0l0 3.546875q1.15625 -1.828125 3.140625 -2.953125q1.984375 -1.140625 4.390625 -1.140625q4.21875 0 7.15625 3.296875q2.9375305 3.296875 2.9375305 9.203125q0 6.0625 -2.9687805 9.421875q-2.953125 3.359375 -7.171875 3.359375q-2.0 0 -3.625 -0.796875q-1.625 -0.796875 -3.4375 -2.734375l0 12.1875l-6.390625 0l0 -33.390625zm6.328125 11.6875q0 4.078125 1.609375 6.03125q1.625 1.9375 3.953125 1.9375q2.234375 0 3.703125 -1.78125q1.484375 -1.796875 1.484375 -5.875q0 -3.8125 -1.53125 -5.65625q-1.515625 -1.84375 -3.78125 -1.84375q-2.34375 0 -3.890625 1.8125q-1.546875 1.8125 -1.546875 5.375zm28.483917 12.5l-6.40625 0l0 -24.1875l5.9375 0l0 3.4375q1.53125 -2.4375 2.75 -3.203125q1.21875 -0.78125 2.765625 -0.78125q2.1875 0 4.21875 1.203125l-1.984375 5.578125q-1.609375 -1.046875 -3.0 -1.046875q-1.34375 0 -2.28125 0.75q-0.9375 0.734375 -1.46875 2.671875q-0.53125 1.9375 -0.53125 8.109375l0 7.46875zm26.031738 -7.703125l6.375 1.078125q-1.21875 3.5 -3.875 5.34375q-2.65625 1.828125 -6.640625 1.828125q-6.3125 0 -9.34375 -4.125q-2.390625 -3.296875 -2.390625 -8.34375q0 -6.0 3.140625 -9.40625q3.140625 -3.40625 7.953125 -3.40625q5.390625 0 8.515625 3.5625q3.125 3.5625 2.984375 10.921875l-16.03125 0q0.0625 2.84375 1.546875 4.4375q1.484375 1.578125 3.6875 1.578125q1.5 0 2.515625 -0.8125q1.03125 -0.828125 1.5625 -2.65625zm0.359375 -6.46875q-0.0625 -2.78125 -1.4375 -4.21875q-1.359375 -1.453125 -3.3125 -1.453125q-2.109375 0 -3.46875 1.53125q-1.359375 1.515625 -1.34375 4.140625l9.5625 0zm33.760498 14.171875l-5.9375 0l0 -3.546875q-1.484375 2.0625 -3.5 3.078125q-2.015625 1.015625 -4.0625 1.015625q-4.171875 0 -7.15625 -3.359375q-2.96875 -3.359375 -2.96875 -9.375q0 -6.15625 2.890625 -9.34375q2.90625 -3.203125 7.328125 -3.203125q4.046875 0 7.015625 3.359375l0 -12.015625l6.390625 0l0 33.390625zm-17.078125 -12.625q0 3.875 1.0625 5.609375q1.5625 2.5 4.328125 2.5q2.21875 0 3.765625 -1.875q1.546875 -1.875 1.546875 -5.609375q0 -4.171875 -1.5 -6.0q-1.5 -1.84375 -3.84375 -1.84375q-2.28125 0 -3.828125 1.8125q-1.53125 1.8125 -1.53125 5.40625zm23.390137 -14.84375l0 -5.921875l6.40625 0l0 5.921875l-6.40625 0zm0 27.46875l0 -24.1875l6.40625 0l0 24.1875l-6.40625 0zm34.056335 -17.046875l-6.296875 1.140625q-0.328125 -1.890625 -1.453125 -2.84375q-1.125 -0.953125 -2.921875 -0.953125q-2.390625 0 -3.828125 1.65625q-1.421875 1.640625 -1.421875 5.515625q0 4.3125 1.4375 6.09375q1.453125 1.765625 3.890625 1.765625q1.828125 0 2.984375 -1.03125q1.171875 -1.046875 1.640625 -3.5625l6.296875 1.0625q-0.984375 4.328125 -3.765625 6.546875q-2.78125 2.203125 -7.4375 2.203125q-5.3125 0 -8.46875 -3.34375q-3.15625 -3.359375 -3.15625 -9.28125q0 -5.984375 3.15625 -9.3125q3.171875 -3.34375 8.578125 -3.34375q4.421875 0 7.03125 1.90625q2.609375 1.890625 3.734375 5.78125zm15.947998 -7.140625l0 5.09375l-4.375 0l0 9.75q0 2.96875 0.125 3.453125q0.125 0.484375 0.5625 0.8125q0.453125 0.3125 1.09375 0.3125q0.890625 0 2.578125 -0.609375l0.546875 4.96875q-2.234375 0.953125 -5.0625 0.953125q-1.734375 0 -3.125 -0.578125q-1.375 -0.578125 -2.03125 -1.5q-0.65625 -0.921875 -0.90625 -2.5q-0.203125 -1.125 -0.203125 -4.515625l0 -10.546875l-2.9375 0l0 -5.09375l2.9375 0l0 -4.8125l6.421875 -3.734375l0 8.546875l4.375 0zm4.4431763 -3.28125l0 -5.921875l6.40625 0l0 5.921875l-6.40625 0zm0 27.46875l0 -24.1875l6.40625 0l0 24.1875l-6.40625 0zm11.493835 -12.4375q0 -3.1875 1.5625 -6.171875q1.578125 -2.984375 4.453125 -4.546875q2.890625 -1.578125 6.4375 -1.578125q5.484375 0 9.0 3.5625q3.515625 3.5625 3.515625 9.0q0 5.5 -3.546875 9.109375q-3.546875 3.609375 -8.921875 3.609375q-3.328125 0 -6.34375 -1.5q-3.015625 -1.5 -4.59375 -4.40625q-1.5625 -2.90625 -1.5625 -7.078125zm6.546875 0.34375q0 3.59375 1.703125 5.515625q1.71875 1.90625 4.234375 1.90625q2.5 0 4.1875 -1.90625q1.703125 -1.921875 1.703125 -5.5625q0 -3.5625 -1.703125 -5.46875q-1.6875 -1.921875 -4.1875 -1.921875q-2.515625 0 -4.234375 1.921875q-1.703125 1.90625 -1.703125 5.515625zm45.43701 12.09375l-6.40625 0l0 -12.34375q0 -3.921875 -0.40625 -5.0625q-0.40625 -1.15625 -1.34375 -1.796875q-0.921875 -0.640625 -2.21875 -0.640625q-1.65625 0 -2.984375 0.921875q-1.3125 0.90625 -1.8125 2.40625q-0.484375 1.5 -0.484375 5.5625l0 10.953125l-6.40625 0l0 -24.1875l5.953125 0l0 3.546875q3.171875 -4.09375 7.96875 -4.09375q2.125 0 3.875 0.765625q1.75 0.75 2.65625 1.9375q0.90625 1.1875 1.25 2.6875q0.359375 1.5 0.359375 4.3125l0 15.03125zm35.368347 0l0 -3.625q-1.3125 1.9375 -3.46875 3.0625q-2.15625 1.109375 -4.546875 1.109375q-2.4375 0 -4.375 -1.0625q-1.9375 -1.078125 -2.796875 -3.015625q-0.859375 -1.9375 -0.859375 -5.359375l0 -15.296875l6.390625 0l0 11.109375q0 5.109375 0.34375 6.265625q0.359375 1.140625 1.296875 1.8125q0.9375 0.671875 2.375 0.671875q1.640625 0 2.9375 -0.890625q1.296875 -0.90625 1.765625 -2.234375q0.484375 -1.34375 0.484375 -6.53125l0 -10.203125l6.40625 0l0 24.1875l-5.953125 0zm10.327637 -6.90625l6.421875 -0.96875q0.40625 1.859375 1.65625 2.828125q1.265625 0.96875 3.515625 0.96875q2.484375 0 3.734375 -0.90625q0.84375 -0.640625 0.84375 -1.71875q0 -0.71875 -0.453125 -1.203125q-0.484375 -0.453125 -2.140625 -0.84375q-7.75 -1.703125 -9.8125 -3.125q-2.875 -1.953125 -2.875 -5.4375q0 -3.140625 2.484375 -5.28125q2.484375 -2.140625 7.703125 -2.140625q4.953125 0 7.375 1.625q2.421875 1.609375 3.328125 4.765625l-6.046875 1.125q-0.375 -1.421875 -1.46875 -2.171875q-1.078125 -0.75 -3.078125 -0.75q-2.53125 0 -3.625 0.703125q-0.734375 0.5 -0.734375 1.296875q0 0.6875 0.640625 1.171875q0.875 0.640625 5.984375 1.796875q5.109375 1.15625 7.140625 2.84375q2.0 1.71875 2.0 4.765625q0 3.328125 -2.78125 5.71875q-2.765625 2.390625 -8.21875 2.390625q-4.9375 0 -7.828125 -2.0q-2.875 -2.015625 -3.765625 -5.453125zm28.197998 -20.5625l0 -5.921875l6.40625 0l0 5.921875l-6.40625 0zm0 27.46875l0 -24.1875l6.40625 0l0 24.1875l-6.40625 0zm34.97821 0l-6.40625 0l0 -12.34375q0 -3.921875 -0.40625 -5.0625q-0.40625 -1.15625 -1.34375 -1.796875q-0.921875 -0.640625 -2.21875 -0.640625q-1.65625 0 -2.984375 0.921875q-1.3125 0.90625 -1.8125 2.40625q-0.484375 1.5 -0.484375 5.5625l0 10.953125l-6.40625 0l0 -24.1875l5.953125 0l0 3.546875q3.171875 -4.09375 7.96875 -4.09375q2.125 0 3.875 0.765625q1.75 0.75 2.65625 1.9375q0.90625 1.1875 1.25 2.6875q0.359375 1.5 0.359375 4.3125l0 15.03125zm5.8901367 1.59375l7.3125 0.890625q0.1875 1.28125 0.84375 1.75q0.921875 0.6875 2.875 0.6875q2.5 0 3.765625 -0.75q0.84375 -0.5 1.265625 -1.625q0.296875 -0.796875 0.296875 -2.9375l0 -3.53125q-2.859375 3.921875 -7.234375 3.921875q-4.875 0 -7.734375 -4.125q-2.234375 -3.25 -2.234375 -8.109375q0 -6.078125 2.921875 -9.28125q2.9375 -3.21875 7.296875 -3.21875q4.484375 0 7.40625 3.9375l0 -3.390625l5.984375 0l0 21.703125q0 4.28125 -0.703125 6.390625q-0.703125 2.125 -1.984375 3.328125q-1.28125 1.21875 -3.40625 1.890625q-2.125 0.6875 -5.390625 0.6875q-6.15625 0 -8.734375 -2.109375q-2.5625 -2.09375 -2.5625 -5.328125q0 -0.328125 0.015625 -0.78125zm5.71875 -14.1875q0 3.84375 1.484375 5.640625q1.5 1.78125 3.6875 1.78125q2.359375 0 3.96875 -1.828125q1.625 -1.84375 1.625 -5.4375q0 -3.765625 -1.5625 -5.578125q-1.546875 -1.828125 -3.90625 -1.828125q-2.3125 0 -3.8125 1.796875q-1.484375 1.78125 -1.484375 5.453125zm36.290222 12.59375l0 -33.390625l10.09375 0l6.0625 22.78125l6.0 -22.78125l10.109375 0l0 33.390625l-6.265625 0l0 -26.296875l-6.625 26.296875l-6.5 0l-6.609375 -26.296875l0 26.296875l-6.265625 0zm43.70874 -16.8125l-5.8125 -1.046875q0.96875 -3.515625 3.359375 -5.1875q2.40625 -1.6875 7.109375 -1.6875q4.296875 0 6.390625 1.015625q2.09375 1.0 2.9375 2.5625q0.859375 1.5625 0.859375 5.734375l-0.0625 7.46875q0 3.1875 0.296875 4.703125q0.3125 1.515625 1.15625 3.25l-6.328125 0q-0.25 -0.640625 -0.625 -1.890625q-0.15625 -0.5625 -0.21875 -0.75q-1.640625 1.59375 -3.515625 2.390625q-1.859375 0.796875 -3.984375 0.796875q-3.734375 0 -5.890625 -2.03125q-2.15625 -2.03125 -2.15625 -5.125q0 -2.046875 0.984375 -3.65625q0.984375 -1.609375 2.75 -2.453125q1.765625 -0.859375 5.09375 -1.5q4.484375 -0.84375 6.21875 -1.5625l0 -0.640625q0 -1.84375 -0.921875 -2.625q-0.90625 -0.796875 -3.4375 -0.796875q-1.703125 0 -2.671875 0.671875q-0.953125 0.671875 -1.53125 2.359375zm8.5625 5.1875q-1.234375 0.421875 -3.90625 1.0q-2.65625 0.5625 -3.484375 1.109375q-1.25 0.875 -1.25 2.25q0 1.34375 1.0 2.328125q1.0 0.96875 2.5625 0.96875q1.71875 0 3.296875 -1.140625q1.15625 -0.859375 1.53125 -2.109375q0.25 -0.828125 0.25 -3.125l0 -1.28125zm33.682373 -5.421875l-6.296875 1.140625q-0.328125 -1.890625 -1.453125 -2.84375q-1.125 -0.953125 -2.921875 -0.953125q-2.390625 0 -3.828125 1.65625q-1.421875 1.640625 -1.421875 5.515625q0 4.3125 1.4375 6.09375q1.453125 1.765625 3.890625 1.765625q1.828125 0 2.984375 -1.03125q1.171875 -1.046875 1.640625 -3.5625l6.296875 1.0625q-0.984375 4.328125 -3.765625 6.546875q-2.78125 2.203125 -7.4375 2.203125q-5.3125 0 -8.46875 -3.34375q-3.15625 -3.359375 -3.15625 -9.28125q0 -5.984375 3.15625 -9.3125q3.171875 -3.34375 8.578125 -3.34375q4.421875 0 7.03125 1.90625q2.609375 1.890625 3.734375 5.78125zm11.244873 -16.34375l0 12.265625q3.09375 -3.609375 7.390625 -3.609375q2.21875 0 3.984375 0.828125q1.78125 0.8125 2.671875 2.09375q0.90625 1.265625 1.234375 2.8125q0.34375 1.546875 0.34375 4.8125l0 14.1875l-6.40625 0l0 -12.78125q0 -3.796875 -0.375 -4.828125q-0.359375 -1.03125 -1.28125 -1.625q-0.921875 -0.609375 -2.3125 -0.609375q-1.59375 0 -2.84375 0.78125q-1.25 0.765625 -1.828125 2.328125q-0.578125 1.5625 -0.578125 4.609375l0 12.125l-6.40625 0l0 -33.390625l6.40625 0zm22.108887 5.921875l0 -5.921875l6.40625 0l0 5.921875l-6.40625 0zm0 27.46875l0 -24.1875l6.40625 0l0 24.1875l-6.40625 0zm34.97821 0l-6.40625 0l0 -12.34375q0 -3.921875 -0.40625 -5.0625q-0.40625 -1.15625 -1.34375 -1.796875q-0.921875 -0.640625 -2.21875 -0.640625q-1.65625 0 -2.984375 0.921875q-1.3125 0.90625 -1.8125 2.40625q-0.484375 1.5 -0.484375 5.5625l0 10.953125l-6.40625 0l0 -24.1875l5.953125 0l0 3.546875q3.171875 -4.09375 7.96875 -4.09375q2.125 0 3.875 0.765625q1.75 0.75 2.65625 1.9375q0.90625 1.1875 1.25 2.6875q0.359375 1.5 0.359375 4.3125l0 15.03125zm20.49945 -7.703125l6.375 1.078125q-1.21875 3.5 -3.875 5.34375q-2.65625 1.828125 -6.640625 1.828125q-6.3125 0 -9.34375 -4.125q-2.390625 -3.296875 -2.390625 -8.34375q0 -6.0 3.140625 -9.40625q3.140625 -3.40625 7.953125 -3.40625q5.390625 0 8.515625 3.5625q3.125 3.5625 2.984375 10.921875l-16.03125 0q0.0625 2.84375 1.546875 4.4375q1.484375 1.578125 3.6875 1.578125q1.5 0 2.515625 -0.8125q1.03125 -0.828125 1.5625 -2.65625zm0.359375 -6.46875q-0.0625 -2.78125 -1.4375 -4.21875q-1.359375 -1.453125 -3.3125 -1.453125q-2.109375 0 -3.46875 1.53125q-1.359375 1.515625 -1.34375 4.140625l9.5625 0zm24.77002 14.171875l0 -33.125l6.734375 0l0 27.5l16.78125 0l0 5.625l-23.515625 0zm42.28076 -7.703125l6.375 1.078125q-1.21875 3.5 -3.875 5.34375q-2.65625 1.828125 -6.640625 1.828125q-6.3125 0 -9.34375 -4.125q-2.390625 -3.296875 -2.390625 -8.34375q0 -6.0 3.140625 -9.40625q3.140625 -3.40625 7.953125 -3.40625q5.390625 0 8.515625 3.5625q3.125 3.5625 2.984375 10.921875l-16.03125 0q0.0625 2.84375 1.546875 4.4375q1.484375 1.578125 3.6875 1.578125q1.5 0 2.515625 -0.8125q1.03125 -0.828125 1.5625 -2.65625zm0.359375 -6.46875q-0.0625 -2.78125 -1.4375 -4.21875q-1.359375 -1.453125 -3.3125 -1.453125q-2.109375 0 -3.46875 1.53125q-1.359375 1.515625 -1.34375 4.140625l9.5625 0zm16.369873 -2.640625l-5.8125 -1.046875q0.96875 -3.515625 3.359375 -5.1875q2.40625 -1.6875 7.109375 -1.6875q4.296875 0 6.390625 1.015625q2.09375 1.0 2.9375 2.5625q0.859375 1.5625 0.859375 5.734375l-0.0625 7.46875q0 3.1875 0.296875 4.703125q0.3125 1.515625 1.15625 3.25l-6.328125 0q-0.25 -0.640625 -0.625 -1.890625q-0.15625 -0.5625 -0.21875 -0.75q-1.640625 1.59375 -3.515625 2.390625q-1.859375 0.796875 -3.984375 0.796875q-3.734375 0 -5.890625 -2.03125q-2.15625 -2.03125 -2.15625 -5.125q0 -2.046875 0.984375 -3.65625q0.984375 -1.609375 2.75 -2.453125q1.765625 -0.859375 5.09375 -1.5q4.484375 -0.84375 6.21875 -1.5625l0 -0.640625q0 -1.84375 -0.921875 -2.625q-0.90625 -0.796875 -3.4375 -0.796875q-1.703125 0 -2.671875 0.671875q-0.953125 0.671875 -1.53125 2.359375zm8.5625 5.1875q-1.234375 0.421875 -3.90625 1.0q-2.65625 0.5625 -3.484375 1.109375q-1.25 0.875 -1.25 2.25q0 1.34375 1.0 2.328125q1.0 0.96875 2.5625 0.96875q1.71875 0 3.296875 -1.140625q1.15625 -0.859375 1.53125 -2.109375q0.25 -0.828125 0.25 -3.125l0 -1.28125zm18.729248 11.625l-6.40625 0l0 -24.1875l5.9375 0l0 3.4375q1.53125 -2.4375 2.75 -3.203125q1.21875 -0.78125 2.765625 -0.78125q2.1875 0 4.21875 1.203125l-1.984375 5.578125q-1.609375 -1.046875 -3.0 -1.046875q-1.34375 0 -2.28125 0.75q-0.9375 0.734375 -1.46875 2.671875q-0.53125 1.9375 -0.53125 8.109375l0 7.46875zm34.03174 0l-6.40625 0l0 -12.34375q0 -3.921875 -0.40625 -5.0625q-0.40625 -1.15625 -1.34375 -1.796875q-0.921875 -0.640625 -2.21875 -0.640625q-1.65625 0 -2.984375 0.921875q-1.3125 0.90625 -1.8125 2.40625q-0.484375 1.5 -0.484375 5.5625l0 10.953125l-6.40625 0l0 -24.1875l5.953125 0l0 3.546875q3.171875 -4.09375 7.96875 -4.09375q2.125 0 3.875 0.765625q1.75 0.75 2.65625 1.9375q0.90625 1.1875 1.25 2.6875q0.359375 1.5 0.359375 4.3125l0 15.03125zm6.4838867 -27.46875l0 -5.921875l6.40625 0l0 5.921875l-6.40625 0zm0 27.46875l0 -24.1875l6.40625 0l0 24.1875l-6.40625 0zm34.97827 0l-6.40625 0l0 -12.34375q0 -3.921875 -0.40625 -5.0625q-0.40625 -1.15625 -1.34375 -1.796875q-0.921875 -0.640625 -2.21875 -0.640625q-1.65625 0 -2.984375 0.921875q-1.3125 0.90625 -1.8125 2.40625q-0.484375 1.5 -0.484375 5.5625l0 10.953125l-6.40625 0l0 -24.1875l5.953125 0l0 3.546875q3.171875 -4.09375 7.96875 -4.09375q2.125 0 3.875 0.765625q1.75 0.75 2.65625 1.9375q0.90625 1.1875 1.25 2.6875q0.359375 1.5 0.359375 4.3125l0 15.03125zm5.8901367 1.59375l7.3125 0.890625q0.1875 1.28125 0.84375 1.75q0.921875 0.6875 2.875 0.6875q2.5 0 3.765625 -0.75q0.84375 -0.5 1.265625 -1.625q0.296875 -0.796875 0.296875 -2.9375l0 -3.53125q-2.859375 3.921875 -7.234375 3.921875q-4.875 0 -7.734375 -4.125q-2.234375 -3.25 -2.234375 -8.109375q0 -6.078125 2.921875 -9.28125q2.9375 -3.21875 7.296875 -3.21875q4.484375 0 7.40625 3.9375l0 -3.390625l5.984375 0l0 21.703125q0 4.28125 -0.703125 6.390625q-0.703125 2.125 -1.984375 3.328125q-1.28125 1.21875 -3.40625 1.890625q-2.125 0.6875 -5.390625 0.6875q-6.15625 0 -8.734375 -2.109375q-2.5625 -2.09375 -2.5625 -5.328125q0 -0.328125 0.015625 -0.78125zm5.71875 -14.1875q0 3.84375 1.484375 5.640625q1.5 1.78125 3.6875 1.78125q2.359375 0 3.96875 -1.828125q1.625 -1.84375 1.625 -5.4375q0 -3.765625 -1.5625 -5.578125q-1.546875 -1.828125 -3.90625 -1.828125q-2.3125 0 -3.8125 1.796875q-1.484375 1.78125 -1.484375 5.453125z" fill-rule="nonzero"/><defs><radialGradient id="p.2" gradientUnits="userSpaceOnUse" gradientTransform="matrix(20.25699589144283 0.0 0.0 20.25699589144283 0.0 0.0)" spreadMethod="pad" cx="30.75846048202803" cy="30.041616115585676" fx="30.75846048202803" fy="30.041616115585676" r="20.256996154785156"><stop offset="0.0" stop-color="#fdecdb"/><stop offset="1.0" stop-color="#f0a963"/></radialGradient></defs><path fill="url(#p.2)" d="m215.42047 561.6238l815.30707 0l0 93.85828l-815.30707 0z" fill-rule="evenodd"/><path fill="#741b47" d="m331.41574 600.22375l-3.71875 0l-0.6875 -15.9375l-3.03125 15.9375l-3.546875 0l3.984375 -19.078125l5.59375 0l0.59375 13.359375l6.5 -13.359375l5.671875 0l-4.0 19.078125l-3.578125 0l3.765625 -15.828125l-7.546875 15.828125zm16.486115 -9.90625l-3.65625 -0.3125q0.625 -1.84375 2.1875 -2.875q1.5625 -1.046875 4.125 -1.046875q2.65625 0 3.9375 1.078125q1.28125 1.0625 1.28125 2.609375q0 0.625 -0.125 1.328125q-0.109375 0.703125 -0.765625 3.703125q-0.546875 2.46875 -0.546875 3.453125q0 0.890625 0.3125 1.96875l-3.625 0q-0.234375 -0.75 -0.28125 -1.5625q-0.8125 0.90625 -1.890625 1.40625q-1.0625 0.484375 -2.140625 0.484375q-1.71875 0 -2.84375 -1.125q-1.109375 -1.125 -1.109375 -2.90625q0 -1.96875 1.21875 -3.15625q1.234375 -1.1875 4.390625 -1.4375q2.671875 -0.21875 3.578125 -0.53125q0.234375 -0.78125 0.234375 -1.25q0 -0.59375 -0.484375 -1.0q-0.484375 -0.40625 -1.4375 -0.40625q-1.0 0 -1.578125 0.421875q-0.578125 0.40625 -0.78125 1.15625zm3.546875 3.46875q-0.34375 0.078125 -0.890625 0.15625q-2.8125 0.34375 -3.671875 1.0q-0.609375 0.46875 -0.609375 1.265625q0 0.640625 0.46875 1.09375q0.46875 0.453125 1.234375 0.453125q0.84375 0 1.59375 -0.40625q0.75 -0.421875 1.109375 -1.0625q0.375 -0.640625 0.65625 -2.015625l0.109375 -0.484375zm8.949921 -7.390625l3.53125 0l-0.359375 1.796875q1.328125 -1.140625 2.46875 -1.625q1.15625 -0.484375 2.4375 -0.484375q1.703125 0 2.6875 0.96875q0.984375 0.96875 0.984375 2.59375q0 0.71875 -0.4375 2.75l-1.625 7.828125l-3.734375 0l1.640625 -7.84375q0.359375 -1.765625 0.359375 -2.09375q0 -0.71875 -0.421875 -1.125q-0.421875 -0.421875 -1.171875 -0.421875q-0.828125 0 -1.828125 0.703125q-1.0 0.6875 -1.578125 1.8125q-0.40625 0.8125 -0.921875 3.296875l-1.1875 5.671875l-3.734375 0l2.890625 -13.828125zm17.313965 -5.25l3.734375 0l-0.703125 3.375l-3.734375 0l0.703125 -3.375zm-1.09375 5.25l3.734375 0l-2.890625 13.828125l-3.734375 0l2.890625 -13.828125zm4.030945 9.96875l3.625 -0.578125q0.484375 1.140625 1.203125 1.625q0.71875 0.46875 1.953125 0.46875q1.265625 0 2.03125 -0.578125q0.546875 -0.390625 0.546875 -0.9375q0 -0.390625 -0.28125 -0.6875q-0.28125 -0.28125 -1.546875 -0.703125q-3.390625 -1.109375 -4.1875 -1.765625q-1.265625 -1.015625 -1.265625 -2.65625q0 -1.640625 1.21875 -2.828125q1.703125 -1.640625 5.0625 -1.640625q2.671875 0 4.03125 0.96875q1.375 0.96875 1.734375 2.640625l-3.4375 0.59375q-0.28125 -0.75 -0.890625 -1.125q-0.828125 -0.515625 -2.0 -0.515625q-1.171875 0 -1.6875 0.390625q-0.515625 0.390625 -0.515625 0.90625q0 0.515625 0.515625 0.859375q0.328125 0.203125 2.09375 0.734375q2.734375 0.78125 3.65625 1.5625q1.3125 1.078125 1.3125 2.59375q0 1.96875 -1.65625 3.421875q-1.65625 1.4375 -4.65625 1.4375q-3.0 0 -4.640625 -1.09375q-1.625 -1.109375 -2.21875 -3.09375zm19.106201 3.859375l-3.734375 0l3.984375 -19.078125l3.734375 0l-1.421875 6.796875q1.265625 -1.0 2.359375 -1.421875q1.09375 -0.4375 2.34375 -0.4375q1.671875 0 2.640625 0.96875q0.984375 0.953125 0.984375 2.515625q0 0.828125 -0.359375 2.578125l-1.703125 8.078125l-3.734375 0l1.734375 -8.234375q0.28125 -1.34375 0.28125 -1.71875q0 -0.6875 -0.4375 -1.109375q-0.421875 -0.421875 -1.171875 -0.421875q-0.9375 0 -1.796875 0.65625q-1.125 0.859375 -1.703125 2.109375q-0.328125 0.6875 -0.859375 3.234375l-1.140625 5.484375zm19.87616 0l3.984375 -19.078125l3.9375 0l-1.6875 8.109375l8.8125 -8.109375l5.265625 0l-8.5625 7.484375l6.28125 11.59375l-4.4375 0l-4.703125 -9.078125l-3.71875 3.234375l-1.21875 5.84375l-3.953125 0zm22.1409 -13.828125l3.734375 0l-1.703125 8.1875q-0.3125 1.46875 -0.3125 1.84375q0 0.59375 0.4375 1.03125q0.4375 0.421875 1.125 0.421875q0.5 0 0.984375 -0.1875q0.484375 -0.1875 0.984375 -0.5625q0.515625 -0.390625 0.90625 -0.890625q0.40625 -0.5 0.765625 -1.296875q0.25 -0.609375 0.53125 -1.953125l1.375 -6.59375l3.734375 0l-2.890625 13.828125l-3.484375 0l0.390625 -1.875q-2.296875 2.203125 -4.984375 2.203125q-1.703125 0 -2.6875 -0.96875q-0.96875 -0.984375 -0.96875 -2.625q0 -0.71875 0.4375 -2.859375l1.625 -7.703125zm16.188965 0l3.515625 0l-0.359375 1.6875q2.0625 -2.0 4.328125 -2.0q1.5625 0 2.40625 0.65625q0.84375 0.640625 1.078125 1.78125q0.71875 -1.046875 2.046875 -1.734375q1.34375 -0.703125 2.796875 -0.703125q1.65625 0 2.578125 0.890625q0.921875 0.875 0.921875 2.328125q0 0.71875 -0.359375 2.46875l-1.78125 8.453125l-3.734375 0l1.78125 -8.453125q0.3125 -1.578125 0.3125 -1.796875q0 -0.5625 -0.34375 -0.890625q-0.34375 -0.34375 -1.03125 -0.34375q-1.390625 0 -2.484375 1.46875q-0.796875 1.0625 -1.359375 3.734375l-1.3125 6.28125l-3.734375 0l1.75 -8.359375q0.296875 -1.4375 0.296875 -1.875q0 -0.546875 -0.375 -0.890625q-0.375 -0.359375 -1.015625 -0.359375q-0.609375 0 -1.265625 0.375q-0.65625 0.359375 -1.140625 1.0q-0.484375 0.640625 -0.84375 1.640625q-0.15625 0.46875 -0.5 2.109375l-1.328125 6.359375l-3.734375 0l2.890625 -13.828125zm26.20166 3.921875l-3.65625 -0.3125q0.625 -1.84375 2.1875 -2.875q1.5625 -1.046875 4.125 -1.046875q2.65625 0 3.9375 1.078125q1.28125 1.0625 1.28125 2.609375q0 0.625 -0.125 1.328125q-0.109375 0.703125 -0.765625 3.703125q-0.546875 2.46875 -0.546875 3.453125q0 0.890625 0.3125 1.96875l-3.625 0q-0.234375 -0.75 -0.28125 -1.5625q-0.8125 0.90625 -1.890625 1.40625q-1.0625 0.484375 -2.140625 0.484375q-1.71875 0 -2.84375 -1.125q-1.109375 -1.125 -1.109375 -2.90625q0 -1.96875 1.21875 -3.15625q1.234375 -1.1875 4.390625 -1.4375q2.671875 -0.21875 3.578125 -0.53125q0.234375 -0.78125 0.234375 -1.25q0 -0.59375 -0.484375 -1.0q-0.484375 -0.40625 -1.4375 -0.40625q-1.0 0 -1.578125 0.421875q-0.578125 0.40625 -0.78125 1.15625zm3.546875 3.46875q-0.34375 0.078125 -0.890625 0.15625q-2.8125 0.34375 -3.671875 1.0q-0.609375 0.46875 -0.609375 1.265625q0 0.640625 0.46875 1.09375q0.46875 0.453125 1.234375 0.453125q0.84375 0 1.59375 -0.40625q0.75 -0.421875 1.109375 -1.0625q0.375 -0.640625 0.65625 -2.015625l0.109375 -0.484375zm8.684326 -7.390625l3.484375 0l-0.5625 2.6875q1.953125 -3.0 4.234375 -3.0q0.8125 0 1.734375 0.390625l-1.4375 3.0625q-0.5 -0.1875 -1.078125 -0.1875q-0.96875 0 -1.96875 0.734375q-0.984375 0.734375 -1.546875 1.953125q-0.5625 1.21875 -1.109375 3.859375l-0.90625 4.328125l-3.734375 0l2.890625 -13.828125z" fill-rule="nonzero"/><path fill="#0000ff" d="m515.9773 605.5519q-1.84375 -2.328125 -3.125 -5.4375q-1.265625 -3.125 -1.265625 -6.453125q0 -2.953125 0.953125 -5.640625q1.109375 -3.125 3.4375 -6.234375l1.59375 0q-1.5 2.578125 -1.96875 3.671875q-0.765625 1.703125 -1.1875 3.5625q-0.53125 2.3125 -0.53125 4.65625q0 5.9375 3.6875 11.875l-1.59375 0z" fill-rule="nonzero"/><path fill="#ff0000" d="m533.7711 593.84875l2.390625 0.328125q-1.140625 3.140625 -3.3125 4.75q-2.171875 1.609375 -4.890625 1.609375q-3.296875 0 -5.234375 -2.015625q-1.9375 -2.015625 -1.9375 -5.78125q0 -4.890625 2.953125 -8.09375q2.609375 -2.859375 6.515625 -2.859375q2.875 0 4.65625 1.546875q1.796875 1.546875 2.078125 4.15625l-2.265625 0.203125q-0.359375 -1.96875 -1.484375 -2.9375q-1.109375 -0.96875 -2.875 -0.96875q-3.328125 0 -5.375 2.953125q-1.78125 2.546875 -1.78125 6.046875q0 2.796875 1.359375 4.28125q1.375 1.46875 3.578125 1.46875q1.875 0 3.390625 -1.21875q1.53125 -1.234375 2.234375 -3.46875zm4.2442627 1.390625q0 -3.84375 2.265625 -6.375q1.875 -2.078125 4.890625 -2.078125q2.375 0 3.828125 1.484375q1.453125 1.484375 1.453125 4.015625q0 2.265625 -0.921875 4.21875q-0.90625 1.9375 -2.59375 2.984375q-1.6875 1.03125 -3.546875 1.03125q-1.53125 0 -2.796875 -0.65625q-1.25 -0.65625 -1.921875 -1.84375q-0.65625 -1.203125 -0.65625 -2.78125zm2.234375 -0.21875q0 1.859375 0.890625 2.8125q0.890625 0.953125 2.265625 0.953125q0.71875 0 1.421875 -0.28125q0.703125 -0.296875 1.3125 -0.890625q0.609375 -0.59375 1.03125 -1.34375q0.4375 -0.765625 0.6875 -1.65625q0.390625 -1.21875 0.390625 -2.34375q0 -1.78125 -0.90625 -2.765625q-0.890625 -0.984375 -2.25 -0.984375q-1.046875 0 -1.921875 0.5q-0.859375 0.5 -1.5625 1.46875q-0.703125 0.96875 -1.03125 2.25q-0.328125 1.28125 -0.328125 2.28125zm11.445679 5.203125l2.75 -13.140625l2.234375 0l-0.453125 2.171875q1.25 -1.40625 2.234375 -1.9375q0.984375 -0.53125 2.125 -0.53125q1.21875 0 2.046875 0.65625q0.828125 0.65625 1.078125 1.8125q1.0 -1.234375 2.109375 -1.84375q1.109375 -0.625 2.34375 -0.625q1.640625 0 2.453125 0.78125q0.828125 0.78125 0.828125 2.1875q0 0.609375 -0.28125 2.015625l-1.765625 8.453125l-2.25 0l1.8125 -8.6875q0.234375 -1.0625 0.234375 -1.515625q0 -0.640625 -0.40625 -1.015625q-0.40625 -0.375 -1.15625 -0.375q-1.0 0 -2.046875 0.609375q-1.03125 0.609375 -1.609375 1.59375q-0.5625 0.984375 -1.0 3.015625l-1.34375 6.375l-2.234375 0l1.859375 -8.875q0.203125 -0.890625 0.203125 -1.28125q0 -0.640625 -0.40625 -1.03125q-0.40625 -0.40625 -1.046875 -0.40625q-0.953125 0 -2.0 0.609375q-1.046875 0.609375 -1.703125 1.6875q-0.65625 1.078125 -1.078125 3.09375l-1.296875 6.203125l-2.234375 0zm20.004822 5.03125l3.796875 -18.171875l2.078125 0l-0.390625 1.84375q1.15625 -1.203125 2.0625 -1.671875q0.90625 -0.46875 1.921875 -0.46875q1.875 0 3.109375 1.375q1.234375 1.359375 1.234375 3.90625q0 2.0625 -0.6875 3.75q-0.671875 1.6875 -1.65625 2.71875q-0.984375 1.015625 -2.0 1.5q-1.015625 0.484375 -2.078125 0.484375q-2.359375 0 -3.65625 -2.40625l-1.484375 7.140625l-2.25 0zm4.4375 -10.40625q0 1.484375 0.203125 2.046875q0.3125 0.8125 1.015625 1.3125q0.703125 0.484375 1.640625 0.484375q1.921875 0 3.109375 -2.171875q1.1875 -2.171875 1.1875 -4.4375q0 -1.671875 -0.796875 -2.578125q-0.796875 -0.90625 -1.984375 -0.90625q-0.859375 0 -1.59375 0.453125q-0.71875 0.453125 -1.34375 1.359375q-0.625 0.890625 -1.03125 2.1875q-0.40625 1.296875 -0.40625 2.25zm19.726929 3.0q-2.375 2.671875 -4.84375 2.671875q-1.515625 0 -2.453125 -0.875q-0.9375 -0.875 -0.9375 -2.125q0 -0.828125 0.421875 -2.84375l1.59375 -7.59375l2.234375 0l-1.765625 8.40625q-0.21875 1.046875 -0.21875 1.625q0 0.75 0.453125 1.171875q0.453125 0.40625 1.328125 0.40625q0.9375 0 1.828125 -0.453125q0.90625 -0.46875 1.546875 -1.234375q0.65625 -0.78125 1.0625 -1.859375q0.28125 -0.671875 0.640625 -2.375l1.1875 -5.6875l2.234375 0l-2.75 13.140625l-2.0625 0l0.5 -2.375zm10.351929 0.5625l-0.375 1.828125q-0.8125 0.203125 -1.5625 0.203125q-1.328125 0 -2.125 -0.65625q-0.59375 -0.484375 -0.59375 -1.34375q0 -0.4375 0.328125 -1.984375l1.59375 -7.640625l-1.765625 0l0.34375 -1.734375l1.78125 0l0.671875 -3.21875l2.5625 -1.546875l-1.0 4.765625l2.203125 0l-0.375 1.734375l-2.1875 0l-1.515625 7.265625q-0.296875 1.375 -0.296875 1.65625q0 0.390625 0.234375 0.609375q0.234375 0.203125 0.75 0.203125q0.734375 0 1.328125 -0.140625zm11.443176 -2.65625l2.1875 0.234375q-0.484375 1.609375 -2.171875 3.078125q-1.6875 1.453125 -4.015625 1.453125q-1.46875 0 -2.6875 -0.671875q-1.21875 -0.671875 -1.859375 -1.953125q-0.625 -1.296875 -0.625 -2.9375q0 -2.15625 0.984375 -4.171875q1.0 -2.03125 2.578125 -3.015625q1.59375 -0.984375 3.4375 -0.984375q2.34375 0 3.75 1.46875q1.40625 1.453125 1.40625 3.984375q0 0.953125 -0.171875 1.96875l-9.671875 0q-0.046875 0.390625 -0.046875 0.703125q0 1.84375 0.84375 2.8125q0.84375 0.96875 2.078125 0.96875q1.140625 0 2.25 -0.75q1.125 -0.765625 1.734375 -2.1875zm-6.5 -3.25l7.375 0q0 -0.34375 0 -0.5q0 -1.671875 -0.84375 -2.5625q-0.828125 -0.90625 -2.15625 -0.90625q-1.4375 0 -2.625 1.0q-1.171875 0.984375 -1.75 2.96875zm10.945679 7.71875l2.75 -13.140625l1.96875 0l-0.546875 2.6875q1.0 -1.515625 1.96875 -2.25q0.984375 -0.734375 2.0 -0.734375q0.65625 0 1.640625 0.484375l-0.921875 2.078125q-0.578125 -0.421875 -1.265625 -0.421875q-1.171875 0 -2.421875 1.3125q-1.234375 1.3125 -1.9375 4.71875l-1.109375 5.265625l-2.125 0zm16.408936 -5.859375l2.375 -0.21875l-0.03125 0.625q0 1.046875 0.484375 1.921875q0.484375 0.875 1.59375 1.359375q1.125 0.46875 2.65625 0.46875q2.171875 0 3.3125 -0.953125q1.140625 -0.953125 1.140625 -2.171875q0 -0.859375 -0.59375 -1.5625q-0.625 -0.703125 -3.375 -1.890625q-2.140625 -0.921875 -2.921875 -1.421875q-1.234375 -0.796875 -1.8125 -1.734375q-0.578125 -0.953125 -0.578125 -2.171875q0 -1.390625 0.765625 -2.515625q0.765625 -1.125 2.234375 -1.71875q1.484375 -0.59375 3.34375 -0.59375q2.21875 0 3.734375 0.75q1.515625 0.734375 2.203125 1.96875q0.6875 1.234375 0.6875 2.359375q0 0.109375 0 0.375l-2.34375 0.1875q0 -0.765625 -0.140625 -1.203125q-0.25 -0.75 -0.765625 -1.265625q-0.515625 -0.53125 -1.421875 -0.84375q-0.90625 -0.3125 -2.03125 -0.3125q-1.984375 0 -3.09375 0.890625q-0.828125 0.671875 -0.828125 1.796875q0 0.671875 0.34375 1.203125q0.34375 0.515625 1.25 1.03125q0.640625 0.359375 3.046875 1.421875q1.953125 0.859375 2.703125 1.359375q0.984375 0.65625 1.515625 1.59375q0.53125 0.921875 0.53125 2.109375q0 1.484375 -0.90625 2.734375q-0.890625 1.234375 -2.46875 1.921875q-1.578125 0.671875 -3.625 0.671875q-3.078125 0 -5.03125 -1.34375q-1.9375 -1.34375 -1.953125 -4.828125zm25.018677 1.078125l2.234375 0.234375q-0.84375 2.453125 -2.390625 3.65625q-1.546875 1.1875 -3.53125 1.1875q-2.140625 0 -3.46875 -1.375q-1.328125 -1.390625 -1.328125 -3.875q0 -2.15625 0.84375 -4.234375q0.859375 -2.078125 2.453125 -3.15625q1.59375 -1.09375 3.625 -1.09375q2.125 0 3.359375 1.203125q1.234375 1.1875 1.234375 3.15625l-2.203125 0.15625q-0.015625 -1.25 -0.734375 -1.953125q-0.703125 -0.71875 -1.859375 -0.71875q-1.34375 0 -2.34375 0.859375q-0.984375 0.859375 -1.546875 2.59375q-0.5625 1.734375 -0.5625 3.34375q0 1.6875 0.734375 2.53125q0.75 0.828125 1.84375 0.828125q1.078125 0 2.078125 -0.828125q1.0 -0.828125 1.5625 -2.515625zm6.7734375 -10.8125l0.53125 -2.53125l2.234375 0l-0.53125 2.53125l-2.234375 0zm-3.265625 15.59375l2.75 -13.140625l2.234375 0l-2.734375 13.140625l-2.25 0zm15.361511 -4.46875l2.1875 0.234375q-0.484375 1.609375 -2.171875 3.078125q-1.6875 1.453125 -4.015625 1.453125q-1.46875 0 -2.6875 -0.671875q-1.21875 -0.671875 -1.859375 -1.953125q-0.625 -1.296875 -0.625 -2.9375q0 -2.15625 0.984375 -4.171875q1.0 -2.03125 2.578125 -3.015625q1.59375 -0.984375 3.4375 -0.984375q2.34375 0 3.75 1.46875q1.40625 1.453125 1.40625 3.984375q0 0.953125 -0.171875 1.96875l-9.671875 0q-0.046875 0.390625 -0.046875 0.703125q0 1.84375 0.84375 2.8125q0.84375 0.96875 2.078125 0.96875q1.140625 0 2.25 -0.75q1.125 -0.765625 1.734375 -2.1875zm-6.5 -3.25l7.375 0q0 -0.34375 0 -0.5q0 -1.671875 -0.84375 -2.5625q-0.828125 -0.90625 -2.15625 -0.90625q-1.4375 0 -2.625 1.0q-1.171875 0.984375 -1.75 2.96875zm10.945679 7.71875l2.75 -13.140625l2.015625 0l-0.484375 2.296875q1.328125 -1.34375 2.46875 -1.96875q1.15625 -0.625 2.359375 -0.625q1.59375 0 2.5 0.875q0.921875 0.859375 0.921875 2.3125q0 0.734375 -0.328125 2.296875l-1.671875 7.953125l-2.234375 0l1.75 -8.328125q0.25 -1.203125 0.25 -1.78125q0 -0.65625 -0.453125 -1.0625q-0.453125 -0.421875 -1.296875 -0.421875q-1.71875 0 -3.0625 1.25q-1.34375 1.234375 -1.96875 4.234375l-1.28125 6.109375l-2.234375 0zm23.148804 -4.78125l2.234375 0.234375q-0.84375 2.453125 -2.390625 3.65625q-1.546875 1.1875 -3.53125 1.1875q-2.140625 0 -3.46875 -1.375q-1.328125 -1.390625 -1.328125 -3.875q0 -2.15625 0.84375 -4.234375q0.859375 -2.078125 2.453125 -3.15625q1.59375 -1.09375 3.625 -1.09375q2.125 0 3.359375 1.203125q1.234375 1.1875 1.234375 3.15625l-2.203125 0.15625q-0.015625 -1.25 -0.734375 -1.953125q-0.703125 -0.71875 -1.859375 -0.71875q-1.34375 0 -2.34375 0.859375q-0.984375 0.859375 -1.546875 2.59375q-0.5625 1.734375 -0.5625 3.34375q0 1.6875 0.734375 2.53125q0.75 0.828125 1.84375 0.828125q1.078125 0 2.078125 -0.828125q1.0 -0.828125 1.5625 -2.515625zm13.2421875 0.3125l2.1875 0.234375q-0.484375 1.609375 -2.171875 3.078125q-1.6875 1.453125 -4.015625 1.453125q-1.46875 0 -2.6875 -0.671875q-1.21875 -0.671875 -1.859375 -1.953125q-0.625 -1.296875 -0.625 -2.9375q0 -2.15625 0.984375 -4.171875q1.0 -2.03125 2.578125 -3.015625q1.59375 -0.984375 3.4375 -0.984375q2.34375 0 3.75 1.46875q1.40625 1.453125 1.40625 3.984375q0 0.953125 -0.171875 1.96875l-9.671875 0q-0.046875 0.390625 -0.046875 0.703125q0 1.84375 0.84375 2.8125q0.84375 0.96875 2.078125 0.96875q1.140625 0 2.25 -0.75q1.125 -0.765625 1.734375 -2.1875zm-6.5 -3.25l7.375 0q0 -0.34375 0 -0.5q0 -1.671875 -0.84375 -2.5625q-0.828125 -0.90625 -2.15625 -0.90625q-1.4375 0 -2.625 1.0q-1.171875 0.984375 -1.75 2.96875zm26.842041 6.09375q-1.171875 1.0 -2.25 1.46875q-1.078125 0.453125 -2.296875 0.453125q-1.8125 0 -2.9375 -1.0625q-1.109375 -1.078125 -1.109375 -2.75q0 -1.09375 0.5 -1.9375q0.5 -0.859375 1.328125 -1.359375q0.828125 -0.515625 2.03125 -0.75q0.75 -0.140625 2.859375 -0.21875q2.109375 -0.09375 3.03125 -0.453125q0.265625 -0.921875 0.265625 -1.515625q0 -0.78125 -0.578125 -1.234375q-0.78125 -0.609375 -2.265625 -0.609375q-1.421875 0 -2.3125 0.625q-0.890625 0.625 -1.3125 1.765625l-2.25 -0.203125q0.6875 -1.953125 2.1875 -2.984375q1.5 -1.046875 3.796875 -1.046875q2.4375 0 3.859375 1.171875q1.078125 0.859375 1.078125 2.25q0 1.046875 -0.3125 2.4375l-0.71875 3.265625q-0.34375 1.546875 -0.34375 2.53125q0 0.625 0.265625 1.78125l-2.265625 0q-0.1875 -0.640625 -0.25 -1.625zm0.828125 -5.03125q-0.484375 0.1875 -1.015625 0.296875q-0.53125 0.09375 -1.796875 0.203125q-1.953125 0.171875 -2.765625 0.4375q-0.796875 0.265625 -1.203125 0.84375q-0.40625 0.578125 -0.40625 1.28125q0 0.953125 0.640625 1.5625q0.65625 0.59375 1.859375 0.59375q1.109375 0 2.125 -0.578125q1.03125 -0.59375 1.625 -1.640625q0.59375 -1.0625 0.9375 -3.0zm4.3988037 6.65625l2.75 -13.140625l2.015625 0l-0.484375 2.296875q1.328125 -1.34375 2.46875 -1.96875q1.15625 -0.625 2.359375 -0.625q1.59375 0 2.5 0.875q0.921875 0.859375 0.921875 2.3125q0 0.734375 -0.328125 2.296875l-1.671875 7.953125l-2.234375 0l1.75 -8.328125q0.25 -1.203125 0.25 -1.78125q0 -0.65625 -0.453125 -1.0625q-0.453125 -0.421875 -1.296875 -0.421875q-1.71875 0 -3.0625 1.25q-1.34375 1.234375 -1.96875 4.234375l-1.28125 6.109375l-2.234375 0zm22.945679 -1.90625q-1.921875 2.203125 -4.015625 2.203125q-1.859375 0 -3.109375 -1.375q-1.25 -1.390625 -1.25 -4.0q0 -2.40625 0.984375 -4.390625q0.984375 -1.984375 2.46875 -2.96875q1.484375 -1.0 2.953125 -1.0q2.453125 0 3.703125 2.375l1.484375 -7.0625l2.234375 0l-3.796875 18.125l-2.0625 0l0.40625 -1.90625zm-6.140625 -3.59375q0 1.375 0.265625 2.171875q0.28125 0.78125 0.9375 1.3125q0.65625 0.515625 1.5625 0.515625q1.53125 0 2.765625 -1.578125q1.65625 -2.109375 1.65625 -5.203125q0 -1.546875 -0.828125 -2.421875q-0.8125 -0.890625 -2.046875 -0.890625q-0.796875 0 -1.46875 0.359375q-0.65625 0.359375 -1.3125 1.21875q-0.640625 0.859375 -1.09375 2.1875q-0.4375 1.328125 -0.4375 2.328125zm18.701355 5.5l3.796875 -18.125l13.078125 0l-0.421875 2.0625l-10.671875 0l-1.1875 5.640625l10.390625 0l-0.4375 2.0625l-10.375 0l-1.3125 6.3125l11.40625 0l-0.421875 2.046875l-13.84375 0zm16.596802 0l2.75 -13.140625l2.015625 0l-0.484375 2.296875q1.328125 -1.34375 2.46875 -1.96875q1.15625 -0.625 2.359375 -0.625q1.59375 0 2.5 0.875q0.921875 0.859375 0.921875 2.3125q0 0.734375 -0.328125 2.296875l-1.671875 7.953125l-2.234375 0l1.75 -8.328125q0.25 -1.203125 0.25 -1.78125q0 -0.65625 -0.453125 -1.0625q-0.453125 -0.421875 -1.296875 -0.421875q-1.71875 0 -3.0625 1.25q-1.34375 1.234375 -1.96875 4.234375l-1.28125 6.109375l-2.234375 0zm13.961304 1.1875l2.265625 0.203125q-0.03125 0.78125 0.171875 1.15625q0.21875 0.390625 0.671875 0.59375q0.609375 0.265625 1.578125 0.265625q2.03125 0 2.921875 -1.046875q0.578125 -0.703125 1.078125 -3.0625l0.21875 -1.0625q-1.75 1.765625 -3.71875 1.765625q-1.984375 0 -3.328125 -1.46875q-1.34375 -1.46875 -1.34375 -4.140625q0 -2.21875 1.046875 -4.0625q1.0625 -1.859375 2.515625 -2.8125q1.46875 -0.953125 3.015625 -0.953125q2.59375 0 3.984375 2.453125l0.453125 -2.15625l2.046875 0l-2.640625 12.6875q-0.4375 2.078125 -1.140625 3.25q-0.703125 1.171875 -1.96875 1.8125q-1.25 0.640625 -2.890625 0.640625q-1.59375 0 -2.734375 -0.40625q-1.140625 -0.40625 -1.703125 -1.1875q-0.5625 -0.78125 -0.5625 -1.796875q0 -0.3125 0.0625 -0.671875zm2.796875 -7.0q0 1.34375 0.25 2.03125q0.375 0.953125 1.0625 1.453125q0.6875 0.5 1.53125 0.5q1.09375 0 2.1875 -0.765625q1.09375 -0.78125 1.765625 -2.390625q0.671875 -1.625 0.671875 -3.109375q0 -1.609375 -0.90625 -2.5625q-0.890625 -0.96875 -2.21875 -0.96875q-0.8125 0 -1.578125 0.4375q-0.765625 0.4375 -1.4375 1.34375q-0.65625 0.890625 -1.0 2.140625q-0.328125 1.25 -0.328125 1.890625zm14.586304 -9.78125l0.53125 -2.53125l2.234375 0l-0.53125 2.53125l-2.234375 0zm-3.265625 15.59375l2.75 -13.140625l2.234375 0l-2.734375 13.140625l-2.25 0zm5.720886 0l2.75 -13.140625l2.015625 0l-0.484375 2.296875q1.328125 -1.34375 2.46875 -1.96875q1.15625 -0.625 2.359375 -0.625q1.59375 0 2.5 0.875q0.921875 0.859375 0.921875 2.3125q0 0.734375 -0.328125 2.296875l-1.671875 7.953125l-2.234375 0l1.75 -8.328125q0.25 -1.203125 0.25 -1.78125q0 -0.65625 -0.453125 -1.0625q-0.453125 -0.421875 -1.296875 -0.421875q-1.71875 0 -3.0625 1.25q-1.34375 1.234375 -1.96875 4.234375l-1.28125 6.109375l-2.234375 0zm23.726929 -4.46875l2.1875 0.234375q-0.484375 1.609375 -2.171875 3.078125q-1.6875 1.453125 -4.015625 1.453125q-1.46875 0 -2.6875 -0.671875q-1.21875 -0.671875 -1.859375 -1.953125q-0.625 -1.296875 -0.625 -2.9375q0 -2.15625 0.984375 -4.171875q1.0 -2.03125 2.578125 -3.015625q1.59375 -0.984375 3.4375 -0.984375q2.34375 0 3.75 1.46875q1.40625 1.453125 1.40625 3.984375q0 0.953125 -0.171875 1.96875l-9.671875 0q-0.046875 0.390625 -0.046875 0.703125q0 1.84375 0.84375 2.8125q0.84375 0.96875 2.078125 0.96875q1.140625 0 2.25 -0.75q1.125 -0.765625 1.734375 -2.1875zm-6.5 -3.25l7.375 0q0 -0.34375 0 -0.5q0 -1.671875 -0.84375 -2.5625q-0.828125 -0.90625 -2.15625 -0.90625q-1.4375 0 -2.625 1.0q-1.171875 0.984375 -1.75 2.96875zm20.586304 3.25l2.1875 0.234375q-0.484375 1.609375 -2.171875 3.078125q-1.6875 1.453125 -4.015625 1.453125q-1.46875 0 -2.6875 -0.671875q-1.21875 -0.671875 -1.859375 -1.953125q-0.625 -1.296875 -0.625 -2.9375q0 -2.15625 0.984375 -4.171875q1.0 -2.03125 2.578125 -3.015625q1.59375 -0.984375 3.4375 -0.984375q2.34375 0 3.75 1.46875q1.40625 1.453125 1.40625 3.984375q0 0.953125 -0.171875 1.96875l-9.671875 0q-0.046875 0.390625 -0.046875 0.703125q0 1.84375 0.84375 2.8125q0.84375 0.96875 2.078125 0.96875q1.140625 0 2.25 -0.75q1.125 -0.765625 1.734375 -2.1875zm-6.5 -3.25l7.375 0q0 -0.34375 0 -0.5q0 -1.671875 -0.84375 -2.5625q-0.828125 -0.90625 -2.15625 -0.90625q-1.4375 0 -2.625 1.0q-1.171875 0.984375 -1.75 2.96875zm10.945679 7.71875l2.75 -13.140625l1.96875 0l-0.546875 2.6875q1.0 -1.515625 1.96875 -2.25q0.984375 -0.734375 2.0 -0.734375q0.65625 0 1.640625 0.484375l-0.921875 2.078125q-0.578125 -0.421875 -1.265625 -0.421875q-1.171875 0 -2.421875 1.3125q-1.234375 1.3125 -1.9375 4.71875l-1.109375 5.265625l-2.125 0zm11.606323 -15.59375l0.53125 -2.53125l2.234375 0l-0.53125 2.53125l-2.234375 0zm-3.265625 15.59375l2.75 -13.140625l2.234375 0l-2.734375 13.140625l-2.25 0zm5.720825 0l2.75 -13.140625l2.015625 0l-0.484375 2.296875q1.328125 -1.34375 2.46875 -1.96875q1.15625 -0.625 2.359375 -0.625q1.59375 0 2.5 0.875q0.921875 0.859375 0.921875 2.3125q0 0.734375 -0.328125 2.296875l-1.671875 7.953125l-2.234375 0l1.75 -8.328125q0.25 -1.203125 0.25 -1.78125q0 -0.65625 -0.453125 -1.0625q-0.453125 -0.421875 -1.296875 -0.421875q-1.71875 0 -3.0625 1.25q-1.34375 1.234375 -1.96875 4.234375l-1.28125 6.109375l-2.234375 0zm13.961304 1.1875l2.265625 0.203125q-0.03125 0.78125 0.171875 1.15625q0.21875 0.390625 0.671875 0.59375q0.609375 0.265625 1.578125 0.265625q2.03125 0 2.921875 -1.046875q0.578125 -0.703125 1.078125 -3.0625l0.21875 -1.0625q-1.75 1.765625 -3.71875 1.765625q-1.984375 0 -3.328125 -1.46875q-1.34375 -1.46875 -1.34375 -4.140625q0 -2.21875 1.046875 -4.0625q1.0625 -1.859375 2.515625 -2.8125q1.46875 -0.953125 3.015625 -0.953125q2.59375 0 3.984375 2.453125l0.453125 -2.15625l2.046875 0l-2.640625 12.6875q-0.4375 2.078125 -1.140625 3.25q-0.703125 1.171875 -1.96875 1.8125q-1.25 0.640625 -2.890625 0.640625q-1.59375 0 -2.734375 -0.40625q-1.140625 -0.40625 -1.703125 -1.1875q-0.5625 -0.78125 -0.5625 -1.796875q0 -0.3125 0.0625 -0.671875zm2.796875 -7.0q0 1.34375 0.25 2.03125q0.375 0.953125 1.0625 1.453125q0.6875 0.5 1.53125 0.5q1.09375 0 2.1875 -0.765625q1.09375 -0.78125 1.765625 -2.390625q0.671875 -1.625 0.671875 -3.109375q0 -1.609375 -0.90625 -2.5625q-0.890625 -0.96875 -2.21875 -0.96875q-0.8125 0 -1.578125 0.4375q-0.765625 0.4375 -1.4375 1.34375q-0.65625 0.890625 -1.0 2.140625q-0.328125 1.25 -0.328125 1.890625z" fill-rule="nonzero"/><path fill="#0000ff" d="m921.4853 605.5519l-1.59375 0q3.703125 -5.9375 3.703125 -11.875q0 -2.328125 -0.53125 -4.625q-0.421875 -1.84375 -1.171875 -3.5625q-0.484375 -1.109375 -2.0 -3.703125l1.59375 0q2.328125 3.109375 3.4375 6.234375q0.953125 2.6875 0.953125 5.640625q0 3.328125 -1.28125 6.453125q-1.28125 3.109375 -3.109375 5.4375z" fill-rule="nonzero"/><path fill="#3c78d8" d="m331.91245 630.9438l3.796875 -18.125l2.40625 0l-3.78125 18.125l-2.421875 0zm6.427582 0l2.75 -13.140625l2.015625 0l-0.484375 2.296875q1.328125 -1.34375 2.46875 -1.96875q1.15625 -0.625 2.359375 -0.625q1.59375 0 2.5 0.875q0.921875 0.859375 0.921875 2.3125q0 0.734375 -0.328125 2.296875l-1.671875 7.953125l-2.234375 0l1.75 -8.328125q0.25 -1.203125 0.25 -1.78125q0 -0.65625 -0.453125 -1.0625q-0.453125 -0.421875 -1.296875 -0.421875q-1.71875 0 -3.0625 1.25q-1.34375 1.234375 -1.96875 4.234375l-1.28125 6.109375l-2.234375 0zm14.289429 -4.484375l2.25 -0.140625q0 0.96875 0.296875 1.65625q0.296875 0.671875 1.09375 1.109375q0.796875 0.421875 1.859375 0.421875q1.484375 0 2.21875 -0.59375q0.75 -0.59375 0.75 -1.390625q0 -0.578125 -0.453125 -1.109375q-0.453125 -0.515625 -2.234375 -1.265625q-1.765625 -0.765625 -2.265625 -1.078125q-0.828125 -0.515625 -1.25 -1.1875q-0.421875 -0.6875 -0.421875 -1.578125q0 -1.5625 1.234375 -2.671875q1.25 -1.125 3.46875 -1.125q2.46875 0 3.765625 1.15625q1.296875 1.140625 1.34375 3.0l-2.1875 0.15625q-0.046875 -1.1875 -0.84375 -1.875q-0.796875 -0.703125 -2.234375 -0.703125q-1.171875 0 -1.8125 0.53125q-0.640625 0.53125 -0.640625 1.15625q0 0.609375 0.5625 1.09375q0.359375 0.3125 1.90625 0.984375q2.578125 1.109375 3.25 1.75q1.0625 1.03125 1.0625 2.5q0 0.984375 -0.609375 1.921875q-0.59375 0.9375 -1.828125 1.5q-1.234375 0.5625 -2.890625 0.5625q-2.28125 0 -3.875 -1.125q-1.59375 -1.125 -1.515625 -3.65625zm17.695312 2.671875l-0.375 1.828125q-0.8125 0.203125 -1.5625 0.203125q-1.328125 0 -2.125 -0.65625q-0.59375 -0.484375 -0.59375 -1.34375q0 -0.4375 0.328125 -1.984375l1.59375 -7.640625l-1.765625 0l0.34375 -1.734375l1.78125 0l0.671875 -3.21875l2.5625 -1.546875l-1.0 4.765625l2.203125 0l-0.375 1.734375l-2.1875 0l-1.515625 7.265625q-0.296875 1.375 -0.296875 1.65625q0 0.390625 0.234375 0.609375q0.234375 0.203125 0.75 0.203125q0.734375 0 1.328125 -0.140625zm4.9744873 -13.78125l0.53125 -2.53125l2.234375 0l-0.53125 2.53125l-2.234375 0zm-3.265625 15.59375l2.75 -13.140625l2.234375 0l-2.734375 13.140625l-2.25 0zm10.955231 -1.8125l-0.375 1.828125q-0.8125 0.203125 -1.5625 0.203125q-1.328125 0 -2.125 -0.65625q-0.59375 -0.484375 -0.59375 -1.34375q0 -0.4375 0.328125 -1.984375l1.59375 -7.640625l-1.765625 0l0.34375 -1.734375l1.78125 0l0.671875 -3.21875l2.5625 -1.546875l-1.0 4.765625l2.203125 0l-0.375 1.734375l-2.1875 0l-1.515625 7.265625q-0.296875 1.375 -0.296875 1.65625q0 0.390625 0.234375 0.609375q0.234375 0.203125 0.75 0.203125q0.734375 0 1.328125 -0.140625zm10.771332 -0.5625q-2.375 2.671875 -4.84375 2.671875q-1.515625 0 -2.453125 -0.875q-0.9375 -0.875 -0.9375 -2.125q0 -0.828125 0.421875 -2.84375l1.59375 -7.59375l2.234375 0l-1.765625 8.40625q-0.21875 1.046875 -0.21875 1.625q0 0.75 0.453125 1.171875q0.453125 0.40625 1.328125 0.40625q0.9375 0 1.828125 -0.453125q0.90625 -0.46875 1.546875 -1.234375q0.65625 -0.78125 1.0625 -1.859375q0.28125 -0.671875 0.640625 -2.375l1.1875 -5.6875l2.234375 0l-2.75 13.140625l-2.0625 0l0.5 -2.375zm10.351929 0.5625l-0.375 1.828125q-0.8125 0.203125 -1.5625 0.203125q-1.328125 0 -2.125 -0.65625q-0.59375 -0.484375 -0.59375 -1.34375q0 -0.4375 0.328125 -1.984375l1.59375 -7.640625l-1.765625 0l0.34375 -1.734375l1.78125 0l0.671875 -3.21875l2.5625 -1.546875l-1.0 4.765625l2.203125 0l-0.375 1.734375l-2.1875 0l-1.515625 7.265625q-0.296875 1.375 -0.296875 1.65625q0 0.390625 0.234375 0.609375q0.234375 0.203125 0.75 0.203125q0.734375 0 1.328125 -0.140625zm11.443237 -2.65625l2.1875 0.234375q-0.484375 1.609375 -2.171875 3.078125q-1.6875 1.453125 -4.015625 1.453125q-1.46875 0 -2.6875 -0.671875q-1.21875 -0.671875 -1.859375 -1.953125q-0.625 -1.296875 -0.625 -2.9375q0 -2.15625 0.984375 -4.171875q1.0 -2.03125 2.578125 -3.015625q1.59375 -0.984375 3.4375 -0.984375q2.34375 0 3.75 1.46875q1.40625 1.453125 1.40625 3.984375q0 0.953125 -0.171875 1.96875l-9.671875 0q-0.046875 0.390625 -0.046875 0.703125q0 1.84375 0.84375 2.8125q0.84375 0.96875 2.078125 0.96875q1.140625 0 2.25 -0.75q1.125 -0.765625 1.734375 -2.1875zm-6.5 -3.25l7.375 0q0 -0.34375 0 -0.5q0 -1.671875 -0.84375 -2.5625q-0.828125 -0.90625 -2.15625 -0.90625q-1.4375 0 -2.625 1.0q-1.171875 0.984375 -1.75 2.96875zm18.37326 2.734375q0 -3.84375 2.265625 -6.375q1.875 -2.078125 4.890625 -2.078125q2.375 0 3.828125 1.484375q1.453125 1.484375 1.453125 4.015625q0 2.265625 -0.921875 4.21875q-0.90625 1.9375 -2.59375 2.984375q-1.6875 1.03125 -3.546875 1.03125q-1.53125 0 -2.796875 -0.65625q-1.25 -0.65625 -1.921875 -1.84375q-0.65625 -1.203125 -0.65625 -2.78125zm2.234375 -0.21875q0 1.859375 0.890625 2.8125q0.890625 0.953125 2.265625 0.953125q0.71875 0 1.421875 -0.28125q0.703125 -0.296875 1.3125 -0.890625q0.609375 -0.59375 1.03125 -1.34375q0.4375 -0.765625 0.6875 -1.65625q0.390625 -1.21875 0.390625 -2.34375q0 -1.78125 -0.90625 -2.765625q-0.890625 -0.984375 -2.25 -0.984375q-1.046875 0 -1.921875 0.5q-0.859375 0.5 -1.5625 1.46875q-0.703125 0.96875 -1.03125 2.25q-0.328125 1.28125 -0.328125 2.28125zm11.773804 5.203125l2.375 -11.40625l-2.0 0l0.359375 -1.734375l2.0 0l0.390625 -1.859375q0.296875 -1.40625 0.609375 -2.015625q0.3125 -0.625 1.015625 -1.015625q0.71875 -0.40625 1.953125 -0.40625q0.84375 0 2.46875 0.359375l-0.40625 1.953125q-1.140625 -0.296875 -1.90625 -0.296875q-0.65625 0 -1.0 0.328125q-0.34375 0.328125 -0.578125 1.546875l-0.296875 1.40625l2.484375 0l-0.34375 1.734375l-2.5 0l-2.390625 11.40625l-2.234375 0zm14.058319 0l3.796875 -18.125l13.078125 0l-0.421875 2.0625l-10.671875 0l-1.1875 5.640625l10.390625 0l-0.4375 2.0625l-10.375 0l-1.3125 6.3125l11.40625 0l-0.421875 2.046875l-13.84375 0zm16.596802 0l2.75 -13.140625l2.015625 0l-0.484375 2.296875q1.328125 -1.34375 2.46875 -1.96875q1.15625 -0.625 2.359375 -0.625q1.59375 0 2.5 0.875q0.921875 0.859375 0.921875 2.3125q0 0.734375 -0.328125 2.296875l-1.671875 7.953125l-2.234375 0l1.75 -8.328125q0.25 -1.203125 0.25 -1.78125q0 -0.65625 -0.453125 -1.0625q-0.453125 -0.421875 -1.296875 -0.421875q-1.71875 0 -3.0625 1.25q-1.34375 1.234375 -1.96875 4.234375l-1.28125 6.109375l-2.234375 0zm13.961304 1.1875l2.265625 0.203125q-0.03125 0.78125 0.171875 1.15625q0.21875 0.390625 0.671875 0.59375q0.609375 0.265625 1.578125 0.265625q2.03125 0 2.921875 -1.046875q0.578125 -0.703125 1.078125 -3.0625l0.21875 -1.0625q-1.75 1.765625 -3.71875 1.765625q-1.984375 0 -3.328125 -1.46875q-1.34375 -1.46875 -1.34375 -4.140625q0 -2.21875 1.046875 -4.0625q1.0625 -1.859375 2.515625 -2.8125q1.46875 -0.953125 3.015625 -0.953125q2.59375 0 3.984375 2.453125l0.453125 -2.15625l2.046875 0l-2.640625 12.6875q-0.4375 2.078125 -1.140625 3.25q-0.703125 1.171875 -1.96875 1.8125q-1.25 0.640625 -2.890625 0.640625q-1.59375 0 -2.734375 -0.40625q-1.140625 -0.40625 -1.703125 -1.1875q-0.5625 -0.78125 -0.5625 -1.796875q0 -0.3125 0.0625 -0.671875zm2.796875 -7.0q0 1.34375 0.25 2.03125q0.375 0.953125 1.0625 1.453125q0.6875 0.5 1.53125 0.5q1.09375 0 2.1875 -0.765625q1.09375 -0.78125 1.765625 -2.390625q0.671875 -1.625 0.671875 -3.109375q0 -1.609375 -0.90625 -2.5625q-0.890625 -0.96875 -2.21875 -0.96875q-0.8125 0 -1.578125 0.4375q-0.765625 0.4375 -1.4375 1.34375q-0.65625 0.890625 -1.0 2.140625q-0.328125 1.25 -0.328125 1.890625zm14.586304 -9.78125l0.53125 -2.53125l2.234375 0l-0.53125 2.53125l-2.234375 0zm-3.265625 15.59375l2.75 -13.140625l2.234375 0l-2.734375 13.140625l-2.25 0zm5.7208557 0l2.75 -13.140625l2.015625 0l-0.484375 2.296875q1.328125 -1.34375 2.4687195 -1.96875q1.15625 -0.625 2.359375 -0.625q1.59375 0 2.5 0.875q0.921875 0.859375 0.921875 2.3125q0 0.734375 -0.328125 2.296875l-1.671875 7.953125l-2.234375 0l1.75 -8.328125q0.25 -1.203125 0.25 -1.78125q0 -0.65625 -0.453125 -1.0625q-0.453125 -0.421875 -1.296875 -0.421875q-1.71875 0 -3.0624695 1.25q-1.34375 1.234375 -1.96875 4.234375l-1.28125 6.109375l-2.234375 0zm23.726898 -4.46875l2.1875 0.234375q-0.484375 1.609375 -2.171875 3.078125q-1.6875 1.453125 -4.015625 1.453125q-1.46875 0 -2.6875 -0.671875q-1.21875 -0.671875 -1.859375 -1.953125q-0.625 -1.296875 -0.625 -2.9375q0 -2.15625 0.984375 -4.171875q1.0 -2.03125 2.578125 -3.015625q1.59375 -0.984375 3.4375 -0.984375q2.34375 0 3.75 1.46875q1.40625 1.453125 1.40625 3.984375q0 0.953125 -0.171875 1.96875l-9.671875 0q-0.046875 0.390625 -0.046875 0.703125q0 1.84375 0.84375 2.8125q0.84375 0.96875 2.078125 0.96875q1.140625 0 2.25 -0.75q1.125 -0.765625 1.734375 -2.1875zm-6.5 -3.25l7.375 0q0 -0.34375 0 -0.5q0 -1.671875 -0.84375 -2.5625q-0.828125 -0.90625 -2.15625 -0.90625q-1.4375 0 -2.625 1.0q-1.171875 0.984375 -1.75 2.96875zm20.586304 3.25l2.1875 0.234375q-0.484375 1.609375 -2.171875 3.078125q-1.6875 1.453125 -4.015625 1.453125q-1.46875 0 -2.6875 -0.671875q-1.21875 -0.671875 -1.859375 -1.953125q-0.625 -1.296875 -0.625 -2.9375q0 -2.15625 0.984375 -4.171875q1.0 -2.03125 2.578125 -3.015625q1.59375 -0.984375 3.4375 -0.984375q2.34375 0 3.75 1.46875q1.40625 1.453125 1.40625 3.984375q0 0.953125 -0.171875 1.96875l-9.671875 0q-0.046875 0.390625 -0.046875 0.703125q0 1.84375 0.84375 2.8125q0.84375 0.96875 2.078125 0.96875q1.140625 0 2.25 -0.75q1.125 -0.765625 1.734375 -2.1875zm-6.5 -3.25l7.375 0q0 -0.34375 0 -0.5q0 -1.671875 -0.84375 -2.5625q-0.828125 -0.90625 -2.15625 -0.90625q-1.4375 0 -2.625 1.0q-1.171875 0.984375 -1.75 2.96875zm10.945679 7.71875l2.75 -13.140625l1.96875 0l-0.546875 2.6875q1.0 -1.515625 1.96875 -2.25q0.984375 -0.734375 2.0 -0.734375q0.65625 0 1.640625 0.484375l-0.921875 2.078125q-0.578125 -0.421875 -1.265625 -0.421875q-1.171875 0 -2.421875 1.3125q-1.234375 1.3125 -1.9375 4.71875l-1.109375 5.265625l-2.125 0zm11.606384 -15.59375l0.53125 -2.53125l2.234375 0l-0.53125 2.53125l-2.234375 0zm-3.265625 15.59375l2.75 -13.140625l2.234375 0l-2.734375 13.140625l-2.25 0zm5.720825 0l2.75 -13.140625l2.015625 0l-0.484375 2.296875q1.328125 -1.34375 2.46875 -1.96875q1.15625 -0.625 2.359375 -0.625q1.59375 0 2.5 0.875q0.921875 0.859375 0.921875 2.3125q0 0.734375 -0.328125 2.296875l-1.671875 7.953125l-2.234375 0l1.75 -8.328125q0.25 -1.203125 0.25 -1.78125q0 -0.65625 -0.453125 -1.0625q-0.453125 -0.421875 -1.296875 -0.421875q-1.71875 0 -3.0625 1.25q-1.34375 1.234375 -1.96875 4.234375l-1.28125 6.109375l-2.234375 0zm13.961304 1.1875l2.265625 0.203125q-0.03125 0.78125 0.171875 1.15625q0.21875 0.390625 0.671875 0.59375q0.609375 0.265625 1.578125 0.265625q2.03125 0 2.921875 -1.046875q0.578125 -0.703125 1.078125 -3.0625l0.21875 -1.0625q-1.75 1.765625 -3.71875 1.765625q-1.984375 0 -3.328125 -1.46875q-1.34375 -1.46875 -1.34375 -4.140625q0 -2.21875 1.046875 -4.0625q1.0625 -1.859375 2.515625 -2.8125q1.46875 -0.953125 3.015625 -0.953125q2.59375 0 3.984375 2.453125l0.453125 -2.15625l2.046875 0l-2.640625 12.6875q-0.4375 2.078125 -1.140625 3.25q-0.703125 1.171875 -1.96875 1.8125q-1.25 0.640625 -2.890625 0.640625q-1.59375 0 -2.734375 -0.40625q-1.140625 -0.40625 -1.703125 -1.1875q-0.5625 -0.78125 -0.5625 -1.796875q0 -0.3125 0.0625 -0.671875zm2.796875 -7.0q0 1.34375 0.25 2.03125q0.375 0.953125 1.0625 1.453125q0.6875 0.5 1.53125 0.5q1.09375 0 2.1875 -0.765625q1.09375 -0.78125 1.765625 -2.390625q0.671875 -1.625 0.671875 -3.109375q0 -1.609375 -0.90625 -2.5625q-0.890625 -0.96875 -2.21875 -0.96875q-0.8125 0 -1.578125 0.4375q-0.765625 0.4375 -1.4375 1.34375q-0.65625 0.890625 -1.0 2.140625q-0.328125 1.25 -0.328125 1.890625zm23.357666 5.8125l3.359375 -16.0625l-5.953125 0l0.4375 -2.0625l14.265625 0l-0.4375 2.0625l-5.890625 0l-3.359375 16.0625l-2.421875 0zm17.88031 -4.46875l2.1875 0.234375q-0.484375 1.609375 -2.171875 3.078125q-1.6875 1.453125 -4.015625 1.453125q-1.46875 0 -2.6875 -0.671875q-1.21875 -0.671875 -1.859375 -1.953125q-0.625 -1.296875 -0.625 -2.9375q0 -2.15625 0.984375 -4.171875q1.0 -2.03125 2.578125 -3.015625q1.59375 -0.984375 3.4375 -0.984375q2.34375 0 3.75 1.46875q1.40625 1.453125 1.40625 3.984375q0 0.953125 -0.171875 1.96875l-9.671875 0q-0.046875 0.390625 -0.046875 0.703125q0 1.84375 0.84375 2.8125q0.84375 0.96875 2.078125 0.96875q1.140625 0 2.25 -0.75q1.125 -0.765625 1.734375 -2.1875zm-6.5 -3.25l7.375 0q0 -0.34375 0 -0.5q0 -1.671875 -0.84375 -2.5625q-0.828125 -0.90625 -2.15625 -0.90625q-1.4375 0 -2.625 1.0q-1.171875 0.984375 -1.75 2.96875zm20.008179 2.9375l2.234375 0.234375q-0.84375 2.453125 -2.390625 3.65625q-1.546875 1.1875 -3.53125 1.1875q-2.140625 0 -3.46875 -1.375q-1.328125 -1.390625 -1.328125 -3.875q0 -2.15625 0.84375 -4.234375q0.859375 -2.078125 2.453125 -3.15625q1.59375 -1.09375 3.625 -1.09375q2.125 0 3.359375 1.203125q1.234375 1.1875 1.234375 3.15625l-2.203125 0.15625q-0.015625 -1.25 -0.734375 -1.953125q-0.703125 -0.71875 -1.859375 -0.71875q-1.34375 0 -2.34375 0.859375q-0.984375 0.859375 -1.546875 2.59375q-0.5625 1.734375 -0.5625 3.34375q0 1.6875 0.734375 2.53125q0.75 0.828125 1.84375 0.828125q1.078125 0 2.078125 -0.828125q1.0 -0.828125 1.5625 -2.515625zm3.6015625 4.78125l3.78125 -18.125l2.234375 0l-1.4375 6.953125q1.25 -1.203125 2.3125 -1.734375q1.078125 -0.53125 2.21875 -0.53125q1.640625 0 2.53125 0.859375q0.90625 0.859375 0.90625 2.28125q0 0.6875 -0.390625 2.546875l-1.625 7.75l-2.234375 0l1.671875 -7.953125q0.359375 -1.734375 0.359375 -2.171875q0 -0.640625 -0.453125 -1.046875q-0.4375 -0.421875 -1.28125 -0.421875q-1.21875 0 -2.328125 0.640625q-1.09375 0.640625 -1.71875 1.75q-0.609375 1.109375 -1.140625 3.5625l-1.171875 5.640625l-2.234375 0zm14.086304 0l2.75 -13.140625l2.015625 0l-0.484375 2.296875q1.328125 -1.34375 2.46875 -1.96875q1.15625 -0.625 2.359375 -0.625q1.59375 0 2.5 0.875q0.921875 0.859375 0.921875 2.3125q0 0.734375 -0.328125 2.296875l-1.671875 7.953125l-2.234375 0l1.75 -8.328125q0.25 -1.203125 0.25 -1.78125q0 -0.65625 -0.453125 -1.0625q-0.453125 -0.421875 -1.296875 -0.421875q-1.71875 0 -3.0625 1.25q-1.34375 1.234375 -1.96875 4.234375l-1.28125 6.109375l-2.234375 0zm14.476929 -4.984375q0 -3.84375 2.265625 -6.375q1.875 -2.078125 4.890625 -2.078125q2.375 0 3.828125 1.484375q1.453125 1.484375 1.453125 4.015625q0 2.265625 -0.921875 4.21875q-0.90625 1.9375 -2.59375 2.984375q-1.6875 1.03125 -3.546875 1.03125q-1.53125 0 -2.796875 -0.65625q-1.25 -0.65625 -1.921875 -1.84375q-0.65625 -1.203125 -0.65625 -2.78125zm2.234375 -0.21875q0 1.859375 0.890625 2.8125q0.890625 0.953125 2.265625 0.953125q0.71875 0 1.421875 -0.28125q0.703125 -0.296875 1.3125 -0.890625q0.609375 -0.59375 1.03125 -1.34375q0.4375 -0.765625 0.6875 -1.65625q0.390625 -1.21875 0.390625 -2.34375q0 -1.78125 -0.90625 -2.765625q-0.890625 -0.984375 -2.25 -0.984375q-1.046875 0 -1.921875 0.5q-0.859375 0.5 -1.5625 1.46875q-0.703125 0.96875 -1.03125 2.25q-0.328125 1.28125 -0.328125 2.28125zm11.289429 5.203125l3.78125 -18.125l2.234375 0l-3.78125 18.125l-2.234375 0zm6.189636 -4.984375q0 -3.84375 2.265625 -6.375q1.875 -2.078125 4.890625 -2.078125q2.375 0 3.828125 1.484375q1.453125 1.484375 1.453125 4.015625q0 2.265625 -0.921875 4.21875q-0.90625 1.9375 -2.59375 2.984375q-1.6875 1.03125 -3.546875 1.03125q-1.53125 0 -2.796875 -0.65625q-1.25 -0.65625 -1.921875 -1.84375q-0.65625 -1.203125 -0.65625 -2.78125zm2.234375 -0.21875q0 1.859375 0.890625 2.8125q0.890625 0.953125 2.265625 0.953125q0.71875 0 1.421875 -0.28125q0.703125 -0.296875 1.3125 -0.890625q0.609375 -0.59375 1.03125 -1.34375q0.4375 -0.765625 0.6875 -1.65625q0.390625 -1.21875 0.390625 -2.34375q0 -1.78125 -0.90625 -2.765625q-0.890625 -0.984375 -2.25 -0.984375q-1.046875 0 -1.921875 0.5q-0.859375 0.5 -1.5625 1.46875q-0.703125 0.96875 -1.03125 2.25q-0.328125 1.28125 -0.328125 2.28125zm11.336304 6.390625l2.265625 0.203125q-0.03125 0.78125 0.171875 1.15625q0.21875 0.390625 0.671875 0.59375q0.609375 0.265625 1.578125 0.265625q2.03125 0 2.921875 -1.046875q0.578125 -0.703125 1.078125 -3.0625l0.21875 -1.0625q-1.75 1.765625 -3.71875 1.765625q-1.984375 0 -3.328125 -1.46875q-1.34375 -1.46875 -1.34375 -4.140625q0 -2.21875 1.046875 -4.0625q1.0625 -1.859375 2.515625 -2.8125q1.46875 -0.953125 3.015625 -0.953125q2.59375 0 3.984375 2.453125l0.453125 -2.15625l2.046875 0l-2.640625 12.6875q-0.4375 2.078125 -1.140625 3.25q-0.703125 1.171875 -1.96875 1.8125q-1.25 0.640625 -2.890625 0.640625q-1.59375 0 -2.734375 -0.40625q-1.140625 -0.40625 -1.703125 -1.1875q-0.5625 -0.78125 -0.5625 -1.796875q0 -0.3125 0.0625 -0.671875zm2.796875 -7.0q0 1.34375 0.25 2.03125q0.375 0.953125 1.0625 1.453125q0.6875 0.5 1.53125 0.5q1.09375 0 2.1875 -0.765625q1.09375 -0.78125 1.765625 -2.390625q0.671875 -1.625 0.671875 -3.109375q0 -1.609375 -0.90625 -2.5625q-0.890625 -0.96875 -2.21875 -0.96875q-0.8125 0 -1.578125 0.4375q-0.765625 0.4375 -1.4375 1.34375q-0.65625 0.890625 -1.0 2.140625q-0.328125 1.25 -0.328125 1.890625zm10.570679 10.890625l0.140625 -2.109375q0.6875 0.203125 1.34375 0.203125q0.6875 0 1.09375 -0.3125q0.546875 -0.40625 1.1875 -1.53125l0.71875 -1.296875l-2.1875 -13.171875l2.203125 0l0.984375 6.640625q0.296875 1.96875 0.515625 3.9375l5.875 -10.578125l2.328125 0l-8.359375 14.890625q-1.21875 2.171875 -2.15625 2.875q-0.9375 0.703125 -2.171875 0.703125q-0.78125 0 -1.515625 -0.25zm12.158813 -5.078125l0.53125 -2.53125l2.546875 0l-0.453125 2.203125q-0.421875 2.0 -1.3125 2.921875q-0.875 0.9375 -2.078125 1.0625l0.203125 -0.96875q1.46875 -0.40625 1.953125 -2.6875l-1.390625 0zm13.792725 0l3.796875 -18.125l7.5625 0q1.96875 0 2.953125 0.453125q0.984375 0.4375 1.625 1.546875q0.640625 1.09375 0.640625 2.453125q0 1.125 -0.46875 2.28125q-0.453125 1.15625 -1.15625 1.921875q-0.6875 0.75 -1.40625 1.140625q-0.71875 0.375 -1.53125 0.5625q-1.75 0.40625 -3.53125 0.40625l-4.53125 0l-1.53125 7.359375l-2.421875 0zm4.390625 -9.40625l3.984375 0q2.328125 0 3.40625 -0.5q1.09375 -0.5 1.75 -1.53125q0.65625 -1.03125 0.65625 -2.171875q0 -0.890625 -0.34375 -1.453125q-0.34375 -0.5625 -0.984375 -0.828125q-0.625 -0.265625 -2.421875 -0.265625l-4.640625 0l-1.40625 6.75zm12.253052 9.40625l2.75 -13.140625l1.96875 0l-0.546875 2.6875q1.0 -1.515625 1.96875 -2.25q0.984375 -0.734375 2.0 -0.734375q0.65625 0 1.640625 0.484375l-0.921875 2.078125q-0.578125 -0.421875 -1.265625 -0.421875q-1.171875 0 -2.421875 1.3125q-1.234375 1.3125 -1.9375 4.71875l-1.109375 5.265625l-2.125 0zm17.293823 -1.625q-1.171875 1.0 -2.25 1.46875q-1.078125 0.453125 -2.296875 0.453125q-1.8125 0 -2.9375 -1.0625q-1.109375 -1.078125 -1.109375 -2.75q0 -1.09375 0.5 -1.9375q0.5 -0.859375 1.328125 -1.359375q0.828125 -0.515625 2.03125 -0.75q0.75 -0.140625 2.859375 -0.21875q2.109375 -0.09375 3.03125 -0.453125q0.265625 -0.921875 0.265625 -1.515625q0 -0.78125 -0.578125 -1.234375q-0.78125 -0.609375 -2.265625 -0.609375q-1.421875 0 -2.3125 0.625q-0.890625 0.625 -1.3125 1.765625l-2.25 -0.203125q0.6875 -1.953125 2.1875 -2.984375q1.5 -1.046875 3.796875 -1.046875q2.4375 0 3.859375 1.171875q1.078125 0.859375 1.078125 2.25q0 1.046875 -0.3125 2.4375l-0.71875 3.265625q-0.34375 1.546875 -0.34375 2.53125q0 0.625 0.265625 1.78125l-2.265625 0q-0.1875 -0.640625 -0.25 -1.625zm0.828125 -5.03125q-0.484375 0.1875 -1.015625 0.296875q-0.53125 0.09375 -1.796875 0.203125q-1.953125 0.171875 -2.765625 0.4375q-0.796875 0.265625 -1.203125 0.84375q-0.40625 0.578125 -0.40625 1.28125q0 0.953125 0.640625 1.5625q0.65625 0.59375 1.859375 0.59375q1.109375 0 2.125 -0.578125q1.03125 -0.59375 1.625 -1.640625q0.59375 -1.0625 0.9375 -3.0zm3.5550537 11.734375l0.140625 -2.109375q0.6875 0.203125 1.34375 0.203125q0.6875 0 1.09375 -0.3125q0.546875 -0.40625 1.1875 -1.53125l0.71875 -1.296875l-2.1875 -13.171875l2.203125 0l0.984375 6.640625q0.296875 1.96875 0.515625 3.9375l5.875 -10.578125l2.328125 0l-8.359375 14.890625q-1.21875 2.171875 -2.15625 2.875q-0.9375 0.703125 -2.171875 0.703125q-0.78125 0 -1.515625 -0.25zm22.367188 -6.703125q-1.171875 1.0 -2.25 1.46875q-1.078125 0.453125 -2.296875 0.453125q-1.8125 0 -2.9375 -1.0625q-1.109375 -1.078125 -1.109375 -2.75q0 -1.09375 0.5 -1.9375q0.5 -0.859375 1.328125 -1.359375q0.828125 -0.515625 2.03125 -0.75q0.75 -0.140625 2.859375 -0.21875q2.109375 -0.09375 3.03125 -0.453125q0.265625 -0.921875 0.265625 -1.515625q0 -0.78125 -0.578125 -1.234375q-0.78125 -0.609375 -2.265625 -0.609375q-1.421875 0 -2.3125 0.625q-0.890625 0.625 -1.3125 1.765625l-2.25 -0.203125q0.6875 -1.953125 2.1875 -2.984375q1.5 -1.046875 3.796875 -1.046875q2.4375 0 3.859375 1.171875q1.078125 0.859375 1.078125 2.25q0 1.046875 -0.3125 2.4375l-0.71875 3.265625q-0.34375 1.546875 -0.34375 2.53125q0 0.625 0.265625 1.78125l-2.265625 0q-0.1875 -0.640625 -0.25 -1.625zm0.828125 -5.03125q-0.484375 0.1875 -1.015625 0.296875q-0.53125 0.09375 -1.796875 0.203125q-1.953125 0.171875 -2.765625 0.4375q-0.796875 0.265625 -1.203125 0.84375q-0.40625 0.578125 -0.40625 1.28125q0 0.953125 0.640625 1.5625q0.65625 0.59375 1.859375 0.59375q1.109375 0 2.125 -0.578125q1.03125 -0.59375 1.625 -1.640625q0.59375 -1.0625 0.9375 -3.0zm4.2738037 7.84375l2.265625 0.203125q-0.03125 0.78125 0.171875 1.15625q0.21875 0.390625 0.671875 0.59375q0.609375 0.265625 1.578125 0.265625q2.03125 0 2.921875 -1.046875q0.578125 -0.703125 1.078125 -3.0625l0.21875 -1.0625q-1.75 1.765625 -3.71875 1.765625q-1.984375 0 -3.328125 -1.46875q-1.34375 -1.46875 -1.34375 -4.140625q0 -2.21875 1.046875 -4.0625q1.0625 -1.859375 2.515625 -2.8125q1.46875 -0.953125 3.015625 -0.953125q2.59375 0 3.984375 2.453125l0.453125 -2.15625l2.046875 0l-2.640625 12.6875q-0.4375 2.078125 -1.140625 3.25q-0.703125 1.171875 -1.96875 1.8125q-1.25 0.640625 -2.890625 0.640625q-1.59375 0 -2.734375 -0.40625q-1.140625 -0.40625 -1.703125 -1.1875q-0.5625 -0.78125 -0.5625 -1.796875q0 -0.3125 0.0625 -0.671875zm2.796875 -7.0q0 1.34375 0.25 2.03125q0.375 0.953125 1.0625 1.453125q0.6875 0.5 1.53125 0.5q1.09375 0 2.1875 -0.765625q1.09375 -0.78125 1.765625 -2.390625q0.671875 -1.625 0.671875 -3.109375q0 -1.609375 -0.90625 -2.5625q-0.890625 -0.96875 -2.21875 -0.96875q-0.8125 0 -1.578125 0.4375q-0.765625 0.4375 -1.4375 1.34375q-0.65625 0.890625 -1.0 2.140625q-0.328125 1.25 -0.328125 1.890625zm11.414429 5.8125l2.75 -13.140625l1.96875 0l-0.546875 2.6875q1.0 -1.515625 1.96875 -2.25q0.984375 -0.734375 2.0 -0.734375q0.65625 0 1.640625 0.484375l-0.921875 2.078125q-0.578125 -0.421875 -1.265625 -0.421875q-1.171875 0 -2.421875 1.3125q-1.234375 1.3125 -1.9375 4.71875l-1.109375 5.265625l-2.125 0zm17.293823 -1.625q-1.171875 1.0 -2.25 1.46875q-1.078125 0.453125 -2.296875 0.453125q-1.8125 0 -2.9375 -1.0625q-1.109375 -1.078125 -1.109375 -2.75q0 -1.09375 0.5 -1.9375q0.5 -0.859375 1.328125 -1.359375q0.828125 -0.515625 2.03125 -0.75q0.75 -0.140625 2.859375 -0.21875q2.109375 -0.09375 3.03125 -0.453125q0.265625 -0.921875 0.265625 -1.515625q0 -0.78125 -0.578125 -1.234375q-0.78125 -0.609375 -2.265625 -0.609375q-1.421875 0 -2.3125 0.625q-0.890625 0.625 -1.3125 1.765625l-2.25 -0.203125q0.6875 -1.953125 2.1875 -2.984375q1.5 -1.046875 3.796875 -1.046875q2.4375 0 3.859375 1.171875q1.078125 0.859375 1.078125 2.25q0 1.046875 -0.3125 2.4375l-0.71875 3.265625q-0.34375 1.546875 -0.34375 2.53125q0 0.625 0.265625 1.78125l-2.265625 0q-0.1875 -0.640625 -0.25 -1.625zm0.828125 -5.03125q-0.484375 0.1875 -1.015625 0.296875q-0.53125 0.09375 -1.796875 0.203125q-1.953125 0.171875 -2.765625 0.4375q-0.796875 0.265625 -1.203125 0.84375q-0.40625 0.578125 -0.40625 1.28125q0 0.953125 0.640625 1.5625q0.65625 0.59375 1.859375 0.59375q1.109375 0 2.125 -0.578125q1.03125 -0.59375 1.625 -1.640625q0.59375 -1.0625 0.9375 -3.0zm7.5706787 -8.9375l0.53125 -2.53125l2.21875 0l-0.53125 2.53125l-2.21875 0zm-7.078125 20.53125l0.390625 -1.90625q0.765625 0.203125 1.359375 0.203125q0.71875 0 1.15625 -0.484375q0.421875 -0.46875 0.875 -2.625l2.75 -13.265625l2.25 0l-2.84375 13.671875q-0.53125 2.5625 -1.234375 3.484375q-0.921875 1.234375 -2.578125 1.234375q-0.875 0 -2.125 -0.3125zm19.804688 0.390625q-1.9375 -4.25 -1.9375 -8.734375q0 -3.0 0.78125 -5.578125q0.78125 -2.578125 2.390625 -5.109375q1.0625 -1.671875 3.40625 -4.34375l1.75 0q-1.453125 1.546875 -3.078125 4.359375q-1.609375 2.796875 -2.34375 5.515625q-0.71875 2.703125 -0.71875 5.4375q0 4.078125 1.421875 8.453125l-1.671875 0zm9.371948 -23.453125l2.421875 0l-2.3125 11.140625q-0.296875 1.375 -0.296875 2.046875q0 1.46875 1.15625 2.359375q1.15625 0.890625 2.890625 0.890625q1.390625 0 2.578125 -0.640625q1.203125 -0.640625 1.890625 -1.875q0.6875 -1.234375 1.25 -3.953125l2.09375 -9.96875l2.421875 0l-2.21875 10.625q-0.5625 2.71875 -1.5 4.3125q-0.921875 1.59375 -2.5625 2.5625q-1.640625 0.953125 -3.828125 0.953125q-2.046875 0 -3.5625 -0.671875q-1.5 -0.6875 -2.25 -1.890625q-0.734375 -1.203125 -0.734375 -2.71875q0 -0.953125 0.5 -3.28125l2.0625 -9.890625zm14.728638 18.125l0.53125 -2.53125l2.546875 0l-0.546875 2.53125l-2.53125 0zm6.6776123 0l3.796875 -18.125l7.5625 0q1.96875 0 2.953125 0.453125q0.984375 0.4375 1.625 1.546875q0.640625 1.09375 0.640625 2.453125q0 1.125 -0.46875 2.28125q-0.453125 1.15625 -1.15625 1.921875q-0.6875 0.75 -1.40625 1.140625q-0.71875 0.375 -1.53125 0.5625q-1.75 0.40625 -3.53125 0.40625l-4.53125 0l-1.53125 7.359375l-2.421875 0zm4.390625 -9.40625l3.984375 0q2.328125 0 3.40625 -0.5q1.09375 -0.5 1.75 -1.53125q0.65625 -1.03125 0.65625 -2.171875q0 -0.890625 -0.34375 -1.453125q-0.34375 -0.5625 -0.984375 -0.828125q-0.625 -0.265625 -2.421875 -0.265625l-4.640625 0l-1.40625 6.75zm9.596802 9.40625l0.53125 -2.53125l2.546875 0l-0.546875 2.53125l-2.53125 0zm10.599487 -18.4375q1.953125 4.25 1.953125 8.734375q0 3.0 -0.78125 5.578125q-0.78125 2.5625 -2.390625 5.109375q-1.078125 1.671875 -3.40625 4.34375l-1.734375 0q1.4375 -1.5625 3.046875 -4.375q1.625 -2.796875 2.34375 -5.5q0.734375 -2.703125 0.734375 -5.453125q0 -4.078125 -1.4375 -8.4375l1.671875 0z" fill-rule="nonzero"/><g filter="url(#shadowFilter-p.3)"><use xlink:href="#p.3" transform="matrix(1.0 0.0 0.0 1.0 -4.499021194738353 19.4874008058563)"/></g><defs><filter id="shadowFilter-p.3" filterUnits="userSpaceOnUse"><feGaussianBlur in="SourceAlpha" stdDeviation="5.5" result="blur"/><feComponentTransfer in="blur" color-interpolation-filters="sRGB"><feFuncR type="linear" slope="0" intercept="0.0"/><feFuncG type="linear" slope="0" intercept="0.0"/><feFuncB type="linear" slope="0" intercept="0.0"/><feFuncA type="linear" slope="0.86" intercept="0"/></feComponentTransfer></filter></defs><g id="p.3"><defs><linearGradient id="p.4" gradientUnits="userSpaceOnUse" gradientTransform="matrix(14.228810597459914 0.0 0.0 14.228810597459914 0.0 0.0)" spreadMethod="pad" x1="1.2617173135360606" y1="7.036342653076129" x2="1.2616657939337004" y2="21.26515325044277"><stop offset="0.0" stop-color="#db0000"/><stop offset="1.0" stop-color="#540303"/></linearGradient></defs><path fill="url(#p.4)" d="m60.030777 100.12336c-12.594788 0 -22.756493 9.01577 -30.485111 27.04731c-7.7286186 18.001892 -11.59293 43.284607 -11.59293 75.848145c0 30.784103 3.8438644 55.058487 11.531591 72.823105c7.687727 17.734955 17.501848 26.602448 29.442362 26.602448c9.650551 0 17.610909 -5.175171 23.881027 -15.525513c6.2837753 -10.380005 10.775085 -26.246552 13.4739685 -47.5997l-17.60408 -12.144592c-1.5130081 14.324387 -4.007431 24.823013 -7.4832687 31.49588c-3.47583 6.6728516 -7.6263847 10.009277 -12.451664 10.009277c-6.5427437 0 -11.8587265 -5.249298 -15.947945 -15.74794c-4.0892143 -10.498627 -6.1338234 -28.11496 -6.1338234 -52.84903c0 -23.310501 2.0718842 -40.170593 6.2156105 -50.580246c4.157383 -10.409653 9.568764 -15.614487 16.234188 -15.614487c4.8252754 0 8.921326 2.9360504 12.288094 8.8081665c3.3804398 5.872116 5.602234 13.879547 6.665428 24.022293l17.972107 -9.3420105c-2.044609 -15.658966 -5.111519 -27.670105 -9.200737 -36.033424c-6.8698883 -14.146454 -15.804825 -21.21968 -26.804817 -21.21968z" fill-rule="evenodd"/><defs><linearGradient id="p.5" gradientUnits="userSpaceOnUse" gradientTransform="matrix(14.228810597459914 0.0 0.0 14.228810597459914 0.0 0.0)" spreadMethod="pad" x1="1.2617173135360606" y1="7.036342653076129" x2="1.2616657939337004" y2="21.26515325044277"><stop offset="0.0" stop-color="#db0000"/><stop offset="1.0" stop-color="#540303"/></linearGradient></defs><path fill="url(#p.5)" d="m151.85414 133.88802c7.483261 0 13.480789 5.51622 17.992554 16.54869c4.525406 11.032455 6.788101 27.759079 6.788101 50.17987c0 22.687714 -2.3240356 39.710907 -6.972122 51.06961c-4.63443 11.32901 -10.570618 16.99353 -17.808533 16.99353c-7.237915 0 -13.208176 -5.709015 -17.910767 -17.126999c-4.702606 -11.447662 -7.0539017 -28.248428 -7.0539017 -50.402313c0 -22.509766 2.2899551 -39.340195 6.8698807 -50.491272c4.5799255 -11.18074 10.6115265 -16.771118 18.094788 -16.771118zm-0.184021 -33.764656c-7.319687 0 -13.780655 2.5801697 -19.382889 7.7405167c-4.2118835 3.8257675 -8.089813 9.697884 -11.63382 17.61634c-3.530342 7.9184494 -6.317833 16.860085 -8.362442 26.824883c-2.7397766 13.523651 -4.109665 30.25029 -4.109665 50.179886c0 31.14 3.9460907 55.592316 11.83828 73.35693c7.892189 17.734955 18.524147 26.602448 31.895897 26.602448c13.20816 0 23.758347 -8.911957 31.650528 -26.7359c7.8921967 -17.853607 11.838287 -42.57283 11.838287 -74.157684c0 -31.85176 -3.9801636 -56.719284 -11.940506 -74.60254c-7.946701 -17.883255 -18.544601 -26.824883 -31.79367 -26.824883z" fill-rule="evenodd"/><defs><linearGradient id="p.6" gradientUnits="userSpaceOnUse" gradientTransform="matrix(14.228810597459914 0.0 0.0 14.228810597459914 0.0 0.0)" spreadMethod="pad" x1="1.2617173135360606" y1="7.036342653076129" x2="1.2616657939337004" y2="21.26515325044277"><stop offset="0.0" stop-color="#db0000"/><stop offset="1.0" stop-color="#540303"/></linearGradient></defs><path fill="url(#p.6)" d="m200.3727 103.459785l32.14125 195.64816l19.382874 0l32.202576 -195.64816l-19.260193 0l-22.020432 144.801l-22.7565 -144.801z" fill-rule="evenodd"/><defs><linearGradient id="p.7" gradientUnits="userSpaceOnUse" gradientTransform="matrix(14.228810597459914 0.0 0.0 14.228810597459914 0.0 0.0)" spreadMethod="pad" x1="1.2617173135360606" y1="7.036342653076129" x2="1.2616657939337004" y2="21.26515325044277"><stop offset="0.0" stop-color="#db0000"/><stop offset="1.0" stop-color="#540303"/></linearGradient></defs><path fill="url(#p.7)" d="m292.80945 103.459785l0 195.64816l18.156128 0l0 -195.64816z" fill-rule="evenodd"/><defs><linearGradient id="p.8" gradientUnits="userSpaceOnUse" gradientTransform="matrix(14.228810597459914 0.0 0.0 14.228810597459914 0.0 0.0)" spreadMethod="pad" x1="1.2617173135360606" y1="7.036342653076129" x2="1.2616657939337004" y2="21.26515325044277"><stop offset="0.0" stop-color="#db0000"/><stop offset="1.0" stop-color="#540303"/></linearGradient></defs><path fill="url(#p.8)" d="m354.51572 136.55716c7.4014893 0 12.369873 0.62280273 14.905212 1.868393c3.394043 1.6014862 6.19516 4.6710052 8.40332 9.208542c2.208191 4.537552 3.9256592 10.854523 5.1524353 18.950912c1.2267456 8.096405 1.8401184 19.707184 1.8401184 34.83232c0 15.125137 -0.6133728 27.076965 -1.8401184 35.855484c-1.2267761 8.748856 -2.8147583 15.036163 -4.7639465 18.861954c-1.9355774 3.8257446 -4.375458 6.539398 -7.319702 8.140869c-2.2490845 1.2456055 -5.908905 1.8684082 -10.979553 1.8684082l-13.555756 0l0 -129.58688zm-26.314117 -33.097374l0 195.64816l34.165405 0c6.7063293 0 12.063202 -1.3790588 16.070648 -4.137146c5.3568726 -3.7368164 9.60965 -8.94165 12.758331 -15.614502c4.1710205 -8.8081665 7.3810425 -20.329956 9.630127 -34.5654c1.8401489 -11.655258 2.7602234 -25.53479 2.7602234 -41.638626c0 -18.32811 -0.9814148 -33.735 -2.9442444 -46.220657c-1.9628296 -12.515305 -4.825287 -23.088089 -8.587372 -31.718307c-3.7620544 -8.630234 -8.28064 -14.635803 -13.555725 -18.016716c-3.9256592 -2.4912033 -9.630127 -3.7368011 -17.113373 -3.7368011z" fill-rule="evenodd"/><defs><linearGradient id="p.9" gradientUnits="userSpaceOnUse" gradientTransform="matrix(14.228810597459914 0.0 0.0 14.228810597459914 0.0 0.0)" spreadMethod="pad" x1="1.2617173135360606" y1="7.036342653076129" x2="1.2616657939337004" y2="21.26515325044277"><stop offset="0.0" stop-color="#db0000"/><stop offset="1.0" stop-color="#540303"/></linearGradient></defs><path fill="url(#p.9)" d="m416.89673 209.42476l0 37.50145l33.858704 0l0 -37.50145z" fill-rule="evenodd"/><defs><linearGradient id="p.10" gradientUnits="userSpaceOnUse" gradientTransform="matrix(14.228810597459914 0.0 0.0 14.228810597459914 0.0 0.0)" spreadMethod="pad" x1="1.2617173135360606" y1="7.036342653076129" x2="1.2616657939337004" y2="21.26515325044277"><stop offset="0.0" stop-color="#db0000"/><stop offset="1.0" stop-color="#540303"/></linearGradient></defs><path fill="url(#p.10)" d="m487.12903 102.65904c-1.9628296 11.922173 -5.581787 22.361488 -10.856873 31.317947c-5.2750854 8.926804 -10.161713 14.991684 -14.659851 18.194656l0 34.03157c8.546478 -6.139038 15.968384 -15.614487 22.265778 -28.426376l0 141.3311l17.236053 0l0 -196.4489z" fill-rule="evenodd"/><defs><linearGradient id="p.11" gradientUnits="userSpaceOnUse" gradientTransform="matrix(14.228810597459914 0.0 0.0 14.228810597459914 0.0 0.0)" spreadMethod="pad" x1="1.2617173135360606" y1="7.036342653076129" x2="1.2616657939337004" y2="21.26515325044277"><stop offset="0.0" stop-color="#db0000"/><stop offset="1.0" stop-color="#540303"/></linearGradient></defs><path fill="url(#p.11)" d="m553.55835 133.75456c3.3531494 0 6.304199 3.3364258 8.853149 10.009277c2.562561 6.672867 3.843872 16.059341 3.843872 28.159454c0 11.032455 -1.1381836 19.395782 -3.4144897 25.08995c-2.2626953 5.694168 -5.050171 8.54126 -8.362488 8.54126c-3.4349365 0 -6.2973633 -2.950882 -8.587341 -8.852661c-2.289978 -5.931427 -3.4349365 -15.214111 -3.4349365 -27.848053c0 -12.456009 1.0495605 -21.41246 3.1486816 -26.86937c2.112793 -5.4865723 4.763977 -8.229858 7.9535522 -8.229858zm0.7974243 -31.09552c-8.382935 0 -15.286865 6.079712 -20.711914 18.239143c-5.411377 12.129768 -8.117065 28.114967 -8.117065 47.955605c0 19.039886 2.562561 34.50609 7.687683 46.39859c5.138794 11.862854 11.245361 17.794281 18.319702 17.794281c6.501831 0 11.920044 -5.4717407 16.254639 -16.415222l0 0c-0.6951904 22.420807 -2.289978 37.190063 -4.784363 44.30777c-2.4944458 7.1177063 -5.520447 10.676575 -9.078064 10.676575c-2.8215942 0 -5.0910645 -1.779419 -6.8085327 -5.3382874c-1.7175293 -3.5588684 -2.7807007 -9.030609 -3.1896362 -16.415222l-16.68396 4.003708c1.2267456 16.192795 4.0073853 28.36705 8.34198 36.52278c4.3345947 8.126038 10.018555 12.189087 17.052002 12.189087c9.773254 0 17.70636 -7.918457 23.799255 -23.755371c6.0929565 -15.836914 9.139404 -41.63864 9.139404 -77.40515c0 -35.143707 -2.923767 -60.381943 -8.771362 -75.71468c-5.847595 -15.362404 -13.330872 -23.043602 -22.449768 -23.043602z" fill-rule="evenodd"/><defs><linearGradient id="p.12" gradientUnits="userSpaceOnUse" gradientTransform="matrix(14.228810597459914 0.0 0.0 14.228810597459914 0.0 0.0)" spreadMethod="pad" x1="1.2617173135360606" y1="7.036342653076129" x2="1.2616657939337004" y2="21.26515325044277"><stop offset="0.0" stop-color="#db0000"/><stop offset="1.0" stop-color="#540303"/></linearGradient></defs><path fill="url(#p.12)" d="m662.3724 136.55716c6.5427856 0 10.897766 0.44485474 13.065063 1.3345642c2.944275 1.1566315 5.3773193 4.0482025 7.2992554 8.674713c1.921936 4.626526 2.8829346 10.498627 2.8829346 17.616348c0 5.783142 -0.6883545 10.854507 -2.0650635 15.214111c-1.3630981 4.359604 -3.2509155 7.5625763 -5.663574 9.608917c-2.4126587 2.046341 -7.1970215 3.069519 -14.353149 3.069519l-9.936829 0l0 -55.518173zm82.80664 12.544968l12.390381 72.60068l-24.53534 0l12.1449585 -72.60068zm-109.73413 -45.64234l0 195.64816l18.156128 0l0 -73.80179l11.838318 0c8.219299 0 14.496277 -0.9342041 18.83081 -2.802597c3.1896362 -1.5125122 6.324646 -4.5968475 9.405212 -9.2530365c3.0941772 -4.6858215 5.6431274 -11.121414 7.6468506 -19.306793c2.0037231 -8.185364 3.0055542 -18.28363 3.0055542 -30.29477c0 -15.569992 -1.737915 -28.26326 -5.213745 -38.079773c-3.47583 -9.8461685 -7.789978 -16.237282 -12.942383 -19.17334c-3.3531494 -1.9573746 -10.550171 -2.936058 -21.591064 -2.936058zm100.34943 0l-35.02417 195.64816l19.260193 0l7.421936 -44.441223l35.944214 0l7.8513184 44.441223l19.750916 0l-36.005554 -195.64816z" fill-rule="evenodd"/><defs><linearGradient id="p.13" gradientUnits="userSpaceOnUse" gradientTransform="matrix(14.228810597459914 0.0 0.0 14.228810597459914 0.0 0.0)" spreadMethod="pad" x1="1.2617173135360606" y1="7.036342653076129" x2="1.2616657939337004" y2="21.26515325044277"><stop offset="0.0" stop-color="#db0000"/><stop offset="1.0" stop-color="#540303"/></linearGradient></defs><path fill="url(#p.13)" d="m800.81287 103.459785l0 195.64816l16.867981 0l0 -127.58501l36.250916 127.58501l18.217468 0l0 -195.64816l-16.868042 0l0 130.65454l-36.802917 -130.65454z" fill-rule="evenodd"/><defs><linearGradient id="p.14" gradientUnits="userSpaceOnUse" gradientTransform="matrix(14.228810597459914 0.0 0.0 14.228810597459914 0.0 0.0)" spreadMethod="pad" x1="1.2617173135360606" y1="7.036342653076129" x2="1.2616657939337004" y2="21.26515325044277"><stop offset="0.0" stop-color="#db0000"/><stop offset="1.0" stop-color="#540303"/></linearGradient></defs><path fill="url(#p.14)" d="m917.6009 136.55716c7.4014893 0 12.369873 0.62280273 14.905151 1.868393c3.394043 1.6014862 6.1951904 4.6710052 8.403381 9.208542c2.20813 4.537552 3.9256592 10.854523 5.152405 18.950912c1.2267456 8.096405 1.8401489 19.707184 1.8401489 34.83232c0 15.125137 -0.6134033 27.076965 -1.8401489 35.855484c-1.2267456 8.748856 -2.8147583 15.036163 -4.763977 18.861954c-1.9355469 3.8257446 -4.3754272 6.539398 -7.319641 8.140869c-2.2490845 1.2456055 -5.9089355 1.8684082 -10.979553 1.8684082l-13.555786 0l0 -129.58688zm-26.314148 -33.097374l0 195.64816l34.165405 0c6.70636 0 12.063232 -1.3790588 16.070618 -4.137146c5.3568726 -3.7368164 9.60968 -8.94165 12.758362 -15.614502c4.1710205 -8.8081665 7.3810425 -20.329956 9.630127 -34.5654c1.8401489 -11.655258 2.7601929 -25.53479 2.7601929 -41.638626c0 -18.32811 -0.9813843 -33.735 -2.9442139 -46.220657c-1.9628296 -12.515305 -4.8252563 -23.088089 -8.587341 -31.718307c-3.762085 -8.630234 -8.280701 -14.635803 -13.555786 -18.016716c-3.9256592 -2.4912033 -9.630066 -3.7368011 -17.113342 -3.7368011z" fill-rule="evenodd"/><defs><linearGradient id="p.15" gradientUnits="userSpaceOnUse" gradientTransform="matrix(14.228810597459914 0.0 0.0 14.228810597459914 0.0 0.0)" spreadMethod="pad" x1="1.2617173135360606" y1="7.036342653076129" x2="1.2616657939337004" y2="21.26515325044277"><stop offset="0.0" stop-color="#db0000"/><stop offset="1.0" stop-color="#540303"/></linearGradient></defs><path fill="url(#p.15)" d="m982.0674 103.459785l0 195.64816l68.39209 0l0 -32.963898l-50.235962 0l0 -53.249405l45.144897 0l0 -32.963913l-45.144897 0l0 -43.373566l48.518555 0l0 -33.097374z" fill-rule="evenodd"/><defs><linearGradient id="p.16" gradientUnits="userSpaceOnUse" gradientTransform="matrix(14.228810597459914 0.0 0.0 14.228810597459914 0.0 0.0)" spreadMethod="pad" x1="1.2617173135360606" y1="7.036342653076129" x2="1.2616657939337004" y2="21.26515325044277"><stop offset="0.0" stop-color="#db0000"/><stop offset="1.0" stop-color="#540303"/></linearGradient></defs><path fill="url(#p.16)" d="m1065.6101 103.459785l0 195.64816l16.868042 0l0 -154.00952l17.788086 154.00952l17.481323 0l17.849487 -154.00952l0 154.00952l16.868042 0l0 -195.64816l-27.234253 0l-16.131958 133.45715l-16.315918 -133.45715z" fill-rule="evenodd"/><defs><linearGradient id="p.17" gradientUnits="userSpaceOnUse" gradientTransform="matrix(14.228810597459914 0.0 0.0 14.228810597459914 0.0 0.0)" spreadMethod="pad" x1="1.2617173135360606" y1="7.036342653076129" x2="1.2616657939337004" y2="21.26515325044277"><stop offset="0.0" stop-color="#db0000"/><stop offset="1.0" stop-color="#540303"/></linearGradient></defs><path fill="url(#p.17)" d="m1169.9464 103.459785l0 195.64816l18.156128 0l0 -195.64816z" fill-rule="evenodd"/><defs><linearGradient id="p.18" gradientUnits="userSpaceOnUse" gradientTransform="matrix(14.228810597459914 0.0 0.0 14.228810597459914 0.0 0.0)" spreadMethod="pad" x1="1.2617173135360606" y1="7.036342653076129" x2="1.2616657939337004" y2="21.26515325044277"><stop offset="0.0" stop-color="#db0000"/><stop offset="1.0" stop-color="#540303"/></linearGradient></defs><path fill="url(#p.18)" d="m1244.2885 100.12336c-12.594849 0 -22.756592 9.01577 -30.485107 27.04731c-7.7286377 18.001892 -11.593018 43.284607 -11.593018 75.848145c0 30.784103 3.843872 55.058487 11.531616 72.823105c7.687744 17.734955 17.501831 26.602448 29.442383 26.602448c9.650513 0 17.61084 -5.175171 23.880981 -15.525513c6.2838135 -10.380005 10.7751465 -26.246552 13.473999 -47.5997l-17.604126 -12.144592c-1.5129395 14.324387 -4.0074463 24.823013 -7.4832764 31.49588c-3.47583 6.6728516 -7.626343 10.009277 -12.45166 10.009277c-6.5427246 0 -11.858643 -5.249298 -15.947876 -15.74794c-4.0892334 -10.498627 -6.133789 -28.11496 -6.133789 -52.84903c0 -23.310501 2.0717773 -40.170593 6.215576 -50.580246c4.1573486 -10.409653 9.568726 -15.614487 16.23413 -15.614487c4.8253174 0 8.921387 2.9360504 12.288086 8.8081665c3.3804932 5.872116 5.602295 13.879547 6.6655273 24.022293l17.972046 -9.3420105c-2.0445557 -15.658966 -5.1115723 -27.670105 -9.200684 -36.033424c-6.869995 -14.146454 -15.804932 -21.21968 -26.80481 -21.21968z" fill-rule="evenodd"/><path stroke="#ffff00" stroke-width="2.0" stroke-linejoin="round" stroke-linecap="butt" d="m60.030777 100.12336c-12.594788 0 -22.756493 9.01577 -30.485111 27.04731c-7.7286186 18.001892 -11.59293 43.284607 -11.59293 75.848145c0 30.784103 3.8438644 55.058487 11.531591 72.823105c7.687727 17.734955 17.501848 26.602448 29.442362 26.602448c9.650551 0 17.610909 -5.175171 23.881027 -15.525513c6.2837753 -10.380005 10.775085 -26.246552 13.4739685 -47.5997l-17.60408 -12.144592c-1.5130081 14.324387 -4.007431 24.823013 -7.4832687 31.49588c-3.47583 6.6728516 -7.6263847 10.009277 -12.451664 10.009277c-6.5427437 0 -11.8587265 -5.249298 -15.947945 -15.74794c-4.0892143 -10.498627 -6.1338234 -28.11496 -6.1338234 -52.84903c0 -23.310501 2.0718842 -40.170593 6.2156105 -50.580246c4.157383 -10.409653 9.568764 -15.614487 16.234188 -15.614487c4.8252754 0 8.921326 2.9360504 12.288094 8.8081665c3.3804398 5.872116 5.602234 13.879547 6.665428 24.022293l17.972107 -9.3420105c-2.044609 -15.658966 -5.111519 -27.670105 -9.200737 -36.033424c-6.8698883 -14.146454 -15.804825 -21.21968 -26.804817 -21.21968z" fill-rule="evenodd"/><path stroke="#ffff00" stroke-width="2.0" stroke-linejoin="round" stroke-linecap="butt" d="m151.85414 133.88802c7.483261 0 13.480789 5.51622 17.992554 16.54869c4.525406 11.032455 6.788101 27.759079 6.788101 50.17987c0 22.687714 -2.3240356 39.710907 -6.972122 51.06961c-4.63443 11.32901 -10.570618 16.99353 -17.808533 16.99353c-7.237915 0 -13.208176 -5.709015 -17.910767 -17.126999c-4.702606 -11.447662 -7.0539017 -28.248428 -7.0539017 -50.402313c0 -22.509766 2.2899551 -39.340195 6.8698807 -50.491272c4.5799255 -11.18074 10.6115265 -16.771118 18.094788 -16.771118zm-0.184021 -33.764656c-7.319687 0 -13.780655 2.5801697 -19.382889 7.7405167c-4.2118835 3.8257675 -8.089813 9.697884 -11.63382 17.61634c-3.530342 7.9184494 -6.317833 16.860085 -8.362442 26.824883c-2.7397766 13.523651 -4.109665 30.25029 -4.109665 50.179886c0 31.14 3.9460907 55.592316 11.83828 73.35693c7.892189 17.734955 18.524147 26.602448 31.895897 26.602448c13.20816 0 23.758347 -8.911957 31.650528 -26.7359c7.8921967 -17.853607 11.838287 -42.57283 11.838287 -74.157684c0 -31.85176 -3.9801636 -56.719284 -11.940506 -74.60254c-7.946701 -17.883255 -18.544601 -26.824883 -31.79367 -26.824883z" fill-rule="evenodd"/><path stroke="#ffff00" stroke-width="2.0" stroke-linejoin="round" stroke-linecap="butt" d="m200.3727 103.459785l32.14125 195.64816l19.382874 0l32.202576 -195.64816l-19.260193 0l-22.020432 144.801l-22.7565 -144.801z" fill-rule="evenodd"/><path stroke="#ffff00" stroke-width="2.0" stroke-linejoin="round" stroke-linecap="butt" d="m292.80945 103.459785l0 195.64816l18.156128 0l0 -195.64816z" fill-rule="evenodd"/><path stroke="#ffff00" stroke-width="2.0" stroke-linejoin="round" stroke-linecap="butt" d="m354.51572 136.55716c7.4014893 0 12.369873 0.62280273 14.905212 1.868393c3.394043 1.6014862 6.19516 4.6710052 8.40332 9.208542c2.208191 4.537552 3.9256592 10.854523 5.1524353 18.950912c1.2267456 8.096405 1.8401184 19.707184 1.8401184 34.83232c0 15.125137 -0.6133728 27.076965 -1.8401184 35.855484c-1.2267761 8.748856 -2.8147583 15.036163 -4.7639465 18.861954c-1.9355774 3.8257446 -4.375458 6.539398 -7.319702 8.140869c-2.2490845 1.2456055 -5.908905 1.8684082 -10.979553 1.8684082l-13.555756 0l0 -129.58688zm-26.314117 -33.097374l0 195.64816l34.165405 0c6.7063293 0 12.063202 -1.3790588 16.070648 -4.137146c5.3568726 -3.7368164 9.60965 -8.94165 12.758331 -15.614502c4.1710205 -8.8081665 7.3810425 -20.329956 9.630127 -34.5654c1.8401489 -11.655258 2.7602234 -25.53479 2.7602234 -41.638626c0 -18.32811 -0.9814148 -33.735 -2.9442444 -46.220657c-1.9628296 -12.515305 -4.825287 -23.088089 -8.587372 -31.718307c-3.7620544 -8.630234 -8.28064 -14.635803 -13.555725 -18.016716c-3.9256592 -2.4912033 -9.630127 -3.7368011 -17.113373 -3.7368011z" fill-rule="evenodd"/><path stroke="#ffff00" stroke-width="2.0" stroke-linejoin="round" stroke-linecap="butt" d="m416.89673 209.42476l0 37.50145l33.858704 0l0 -37.50145z" fill-rule="evenodd"/><path stroke="#ffff00" stroke-width="2.0" stroke-linejoin="round" stroke-linecap="butt" d="m487.12903 102.65904c-1.9628296 11.922173 -5.581787 22.361488 -10.856873 31.317947c-5.2750854 8.926804 -10.161713 14.991684 -14.659851 18.194656l0 34.03157c8.546478 -6.139038 15.968384 -15.614487 22.265778 -28.426376l0 141.3311l17.236053 0l0 -196.4489z" fill-rule="evenodd"/><path stroke="#ffff00" stroke-width="2.0" stroke-linejoin="round" stroke-linecap="butt" d="m553.55835 133.75456c3.3531494 0 6.304199 3.3364258 8.853149 10.009277c2.562561 6.672867 3.843872 16.059341 3.843872 28.159454c0 11.032455 -1.1381836 19.395782 -3.4144897 25.08995c-2.2626953 5.694168 -5.050171 8.54126 -8.362488 8.54126c-3.4349365 0 -6.2973633 -2.950882 -8.587341 -8.852661c-2.289978 -5.931427 -3.4349365 -15.214111 -3.4349365 -27.848053c0 -12.456009 1.0495605 -21.41246 3.1486816 -26.86937c2.112793 -5.4865723 4.763977 -8.229858 7.9535522 -8.229858zm0.7974243 -31.09552c-8.382935 0 -15.286865 6.079712 -20.711914 18.239143c-5.411377 12.129768 -8.117065 28.114967 -8.117065 47.955605c0 19.039886 2.562561 34.50609 7.687683 46.39859c5.138794 11.862854 11.245361 17.794281 18.319702 17.794281c6.501831 0 11.920044 -5.4717407 16.254639 -16.415222l0 0c-0.6951904 22.420807 -2.289978 37.190063 -4.784363 44.30777c-2.4944458 7.1177063 -5.520447 10.676575 -9.078064 10.676575c-2.8215942 0 -5.0910645 -1.779419 -6.8085327 -5.3382874c-1.7175293 -3.5588684 -2.7807007 -9.030609 -3.1896362 -16.415222l-16.68396 4.003708c1.2267456 16.192795 4.0073853 28.36705 8.34198 36.52278c4.3345947 8.126038 10.018555 12.189087 17.052002 12.189087c9.773254 0 17.70636 -7.918457 23.799255 -23.755371c6.0929565 -15.836914 9.139404 -41.63864 9.139404 -77.40515c0 -35.143707 -2.923767 -60.381943 -8.771362 -75.71468c-5.847595 -15.362404 -13.330872 -23.043602 -22.449768 -23.043602z" fill-rule="evenodd"/><path stroke="#ffff00" stroke-width="2.0" stroke-linejoin="round" stroke-linecap="butt" d="m662.3724 136.55716c6.5427856 0 10.897766 0.44485474 13.065063 1.3345642c2.944275 1.1566315 5.3773193 4.0482025 7.2992554 8.674713c1.921936 4.626526 2.8829346 10.498627 2.8829346 17.616348c0 5.783142 -0.6883545 10.854507 -2.0650635 15.214111c-1.3630981 4.359604 -3.2509155 7.5625763 -5.663574 9.608917c-2.4126587 2.046341 -7.1970215 3.069519 -14.353149 3.069519l-9.936829 0l0 -55.518173zm82.80664 12.544968l12.390381 72.60068l-24.53534 0l12.1449585 -72.60068zm-109.73413 -45.64234l0 195.64816l18.156128 0l0 -73.80179l11.838318 0c8.219299 0 14.496277 -0.9342041 18.83081 -2.802597c3.1896362 -1.5125122 6.324646 -4.5968475 9.405212 -9.2530365c3.0941772 -4.6858215 5.6431274 -11.121414 7.6468506 -19.306793c2.0037231 -8.185364 3.0055542 -18.28363 3.0055542 -30.29477c0 -15.569992 -1.737915 -28.26326 -5.213745 -38.079773c-3.47583 -9.8461685 -7.789978 -16.237282 -12.942383 -19.17334c-3.3531494 -1.9573746 -10.550171 -2.936058 -21.591064 -2.936058zm100.34943 0l-35.02417 195.64816l19.260193 0l7.421936 -44.441223l35.944214 0l7.8513184 44.441223l19.750916 0l-36.005554 -195.64816z" fill-rule="evenodd"/><path stroke="#ffff00" stroke-width="2.0" stroke-linejoin="round" stroke-linecap="butt" d="m800.81287 103.459785l0 195.64816l16.867981 0l0 -127.58501l36.250916 127.58501l18.217468 0l0 -195.64816l-16.868042 0l0 130.65454l-36.802917 -130.65454z" fill-rule="evenodd"/><path stroke="#ffff00" stroke-width="2.0" stroke-linejoin="round" stroke-linecap="butt" d="m917.6009 136.55716c7.4014893 0 12.369873 0.62280273 14.905151 1.868393c3.394043 1.6014862 6.1951904 4.6710052 8.403381 9.208542c2.20813 4.537552 3.9256592 10.854523 5.152405 18.950912c1.2267456 8.096405 1.8401489 19.707184 1.8401489 34.83232c0 15.125137 -0.6134033 27.076965 -1.8401489 35.855484c-1.2267456 8.748856 -2.8147583 15.036163 -4.763977 18.861954c-1.9355469 3.8257446 -4.3754272 6.539398 -7.319641 8.140869c-2.2490845 1.2456055 -5.9089355 1.8684082 -10.979553 1.8684082l-13.555786 0l0 -129.58688zm-26.314148 -33.097374l0 195.64816l34.165405 0c6.70636 0 12.063232 -1.3790588 16.070618 -4.137146c5.3568726 -3.7368164 9.60968 -8.94165 12.758362 -15.614502c4.1710205 -8.8081665 7.3810425 -20.329956 9.630127 -34.5654c1.8401489 -11.655258 2.7601929 -25.53479 2.7601929 -41.638626c0 -18.32811 -0.9813843 -33.735 -2.9442139 -46.220657c-1.9628296 -12.515305 -4.8252563 -23.088089 -8.587341 -31.718307c-3.762085 -8.630234 -8.280701 -14.635803 -13.555786 -18.016716c-3.9256592 -2.4912033 -9.630066 -3.7368011 -17.113342 -3.7368011z" fill-rule="evenodd"/><path stroke="#ffff00" stroke-width="2.0" stroke-linejoin="round" stroke-linecap="butt" d="m982.0674 103.459785l0 195.64816l68.39209 0l0 -32.963898l-50.235962 0l0 -53.249405l45.144897 0l0 -32.963913l-45.144897 0l0 -43.373566l48.518555 0l0 -33.097374z" fill-rule="evenodd"/><path stroke="#ffff00" stroke-width="2.0" stroke-linejoin="round" stroke-linecap="butt" d="m1065.6101 103.459785l0 195.64816l16.868042 0l0 -154.00952l17.788086 154.00952l17.481323 0l17.849487 -154.00952l0 154.00952l16.868042 0l0 -195.64816l-27.234253 0l-16.131958 133.45715l-16.315918 -133.45715z" fill-rule="evenodd"/><path stroke="#ffff00" stroke-width="2.0" stroke-linejoin="round" stroke-linecap="butt" d="m1169.9464 103.459785l0 195.64816l18.156128 0l0 -195.64816z" fill-rule="evenodd"/><path stroke="#ffff00" stroke-width="2.0" stroke-linejoin="round" stroke-linecap="butt" d="m1244.2885 100.12336c-12.594849 0 -22.756592 9.01577 -30.485107 27.04731c-7.7286377 18.001892 -11.593018 43.284607 -11.593018 75.848145c0 30.784103 3.843872 55.058487 11.531616 72.823105c7.687744 17.734955 17.501831 26.602448 29.442383 26.602448c9.650513 0 17.61084 -5.175171 23.880981 -15.525513c6.2838135 -10.380005 10.7751465 -26.246552 13.473999 -47.5997l-17.604126 -12.144592c-1.5129395 14.324387 -4.0074463 24.823013 -7.4832764 31.49588c-3.47583 6.6728516 -7.626343 10.009277 -12.45166 10.009277c-6.5427246 0 -11.858643 -5.249298 -15.947876 -15.74794c-4.0892334 -10.498627 -6.133789 -28.11496 -6.133789 -52.84903c0 -23.310501 2.0717773 -40.170593 6.215576 -50.580246c4.1573486 -10.409653 9.568726 -15.614487 16.23413 -15.614487c4.8253174 0 8.921387 2.9360504 12.288086 8.8081665c3.3804932 5.872116 5.602295 13.879547 6.6655273 24.022293l17.972046 -9.3420105c-2.0445557 -15.658966 -5.1115723 -27.670105 -9.200684 -36.033424c-6.869995 -14.146454 -15.804932 -21.21968 -26.80481 -21.21968z" fill-rule="evenodd"/></g></g></svg>